<svg xmlns="http://www.w3.org/2000/svg" xmlns:xlink="http://www.w3.org/1999/xlink" width="300" height="300" viewBox="2672674.0 1235423.0 18703.0 23328.0" preserveAspectRatio="xMinYMin meet"><g transform="matrix(1,0,0,-1,0,2494174.0)"><path fill-rule="evenodd" fill="#ff3333" stroke="#555555" stroke-width="155.52" opacity="0.6" d="M 2683838.0,1257887.0 L 2683838.0,1257862.0 L 2683813.0,1257862.0 L 2683813.0,1257837.0 L 2683788.0,1257837.0 L 2683738.0,1257837.0 L 2683738.0,1257812.0 L 2683713.0,1257812.0 L 2683638.0,1257812.0 L 2683638.0,1257787.0 L 2683613.0,1257787.0 L 2683563.0,1257787.0 L 2683563.0,1257762.0 L 2683538.0,1257762.0 L 2683513.0,1257762.0 L 2683513.0,1257737.0 L 2683488.0,1257737.0 L 2683488.0,1257712.0 L 2683463.0,1257712.0 L 2683463.0,1257687.0 L 2683438.0,1257687.0 L 2683438.0,1257662.0 L 2683413.0,1257662.0 L 2683413.0,1257637.0 L 2683388.0,1257637.0 L 2683388.0,1257587.0 L 2683363.0,1257587.0 L 2683363.0,1257537.0 L 2683338.0,1257537.0 L 2683338.0,1257437.0 L 2683313.0,1257437.0 L 2683313.0,1257312.0 L 2683338.0,1257312.0 L 2683338.0,1257162.0 L 2683313.0,1257162.0 L 2683313.0,1257012.0 L 2683338.0,1257012.0 L 2683338.0,1256987.0 L 2683313.0,1256987.0 L 2683313.0,1256887.0 L 2683338.0,1256887.0 L 2683338.0,1256837.0 L 2683363.0,1256837.0 L 2683363.0,1256812.0 L 2683388.0,1256812.0 L 2683388.0,1256762.0 L 2683413.0,1256762.0 L 2683413.0,1256687.0 L 2683438.0,1256687.0 L 2683438.0,1256637.0 L 2683463.0,1256637.0 L 2683463.0,1256612.0 L 2683488.0,1256612.0 L 2683488.0,1256587.0 L 2683513.0,1256587.0 L 2683513.0,1256537.0 L 2683538.0,1256537.0 L 2683538.0,1256512.0 L 2683563.0,1256512.0 L 2683563.0,1256487.0 L 2683613.0,1256487.0 L 2683613.0,1256462.0 L 2683638.0,1256462.0 L 2683638.0,1256362.0 L 2683663.0,1256362.0 L 2683663.0,1256337.0 L 2683638.0,1256337.0 L 2683638.0,1256237.0 L 2683663.0,1256237.0 L 2683663.0,1256062.0 L 2683638.0,1256062.0 L 2683638.0,1255887.0 L 2683663.0,1255887.0 L 2683663.0,1255587.0 L 2683738.0,1255587.0 L 2683738.0,1255562.0 L 2683763.0,1255562.0 L 2683763.0,1255512.0 L 2683788.0,1255512.0 L 2683788.0,1255462.0 L 2683813.0,1255462.0 L 2683813.0,1255437.0 L 2683838.0,1255437.0 L 2683838.0,1255412.0 L 2683863.0,1255412.0 L 2683863.0,1255387.0 L 2683913.0,1255387.0 L 2683913.0,1255362.0 L 2683938.0,1255362.0 L 2683938.0,1255337.0 L 2683963.0,1255337.0 L 2683963.0,1255312.0 L 2683938.0,1255312.0 L 2683938.0,1255212.0 L 2683913.0,1255212.0 L 2683888.0,1255212.0 L 2683888.0,1255237.0 L 2683863.0,1255237.0 L 2683863.0,1255262.0 L 2683788.0,1255262.0 L 2683788.0,1255237.0 L 2683763.0,1255237.0 L 2683763.0,1255187.0 L 2683788.0,1255187.0 L 2683788.0,1255162.0 L 2683813.0,1255162.0 L 2683813.0,1255137.0 L 2683838.0,1255137.0 L 2683838.0,1255112.0 L 2683888.0,1255112.0 L 2683888.0,1255087.0 L 2683963.0,1255087.0 L 2683963.0,1255137.0 L 2683988.0,1255137.0 L 2683988.0,1255162.0 L 2684013.0,1255162.0 L 2684013.0,1255187.0 L 2684038.0,1255187.0 L 2684038.0,1255212.0 L 2684088.0,1255212.0 L 2684088.0,1255187.0 L 2684113.0,1255187.0 L 2684113.0,1255162.0 L 2684138.0,1255162.0 L 2684138.0,1255062.0 L 2684163.0,1255062.0 L 2684163.0,1255012.0 L 2684188.0,1255012.0 L 2684188.0,1254962.0 L 2684213.0,1254962.0 L 2684213.0,1254912.0 L 2684188.0,1254912.0 L 2684188.0,1254887.0 L 2684163.0,1254887.0 L 2684163.0,1254862.0 L 2684138.0,1254862.0 L 2684138.0,1254712.0 L 2684163.0,1254712.0 L 2684163.0,1254687.0 L 2684188.0,1254687.0 L 2684188.0,1254662.0 L 2684213.0,1254662.0 L 2684213.0,1254612.0 L 2684188.0,1254612.0 L 2684188.0,1254562.0 L 2684163.0,1254562.0 L 2684163.0,1254512.0 L 2684138.0,1254512.0 L 2684138.0,1254487.0 L 2684113.0,1254487.0 L 2684113.0,1254337.0 L 2684088.0,1254337.0 L 2684088.0,1254262.0 L 2684063.0,1254262.0 L 2684063.0,1254187.0 L 2684038.0,1254187.0 L 2684038.0,1254137.0 L 2684013.0,1254137.0 L 2684013.0,1254112.0 L 2683988.0,1254112.0 L 2683988.0,1254087.0 L 2683963.0,1254087.0 L 2683938.0,1254087.0 L 2683938.0,1254062.0 L 2683913.0,1254062.0 L 2683863.0,1254062.0 L 2683863.0,1254012.0 L 2683838.0,1254012.0 L 2683838.0,1253962.0 L 2683813.0,1253962.0 L 2683813.0,1253912.0 L 2683788.0,1253912.0 L 2683788.0,1253887.0 L 2683763.0,1253887.0 L 2683588.0,1253887.0 L 2683588.0,1253862.0 L 2683438.0,1253862.0 L 2683438.0,1253887.0 L 2683363.0,1253887.0 L 2683363.0,1253862.0 L 2683338.0,1253862.0 L 2683338.0,1253887.0 L 2683313.0,1253887.0 L 2683313.0,1253862.0 L 2683288.0,1253862.0 L 2683263.0,1253862.0 L 2683263.0,1253837.0 L 2683238.0,1253837.0 L 2683238.0,1253812.0 L 2683213.0,1253812.0 L 2683213.0,1253762.0 L 2683188.0,1253762.0 L 2683188.0,1253737.0 L 2683163.0,1253737.0 L 2683138.0,1253737.0 L 2683138.0,1253687.0 L 2683113.0,1253687.0 L 2683113.0,1253637.0 L 2683088.0,1253637.0 L 2683088.0,1253562.0 L 2683063.0,1253562.0 L 2683063.0,1253537.0 L 2683038.0,1253537.0 L 2683038.0,1253487.0 L 2683013.0,1253487.0 L 2683013.0,1253462.0 L 2682988.0,1253462.0 L 2682988.0,1253412.0 L 2682963.0,1253412.0 L 2682963.0,1253387.0 L 2682988.0,1253387.0 L 2682988.0,1253362.0 L 2682963.0,1253362.0 L 2682963.0,1253337.0 L 2682988.0,1253337.0 L 2682988.0,1253312.0 L 2683013.0,1253312.0 L 2683013.0,1253237.0 L 2682988.0,1253237.0 L 2682988.0,1253187.0 L 2682963.0,1253187.0 L 2682963.0,1253162.0 L 2682938.0,1253162.0 L 2682938.0,1253112.0 L 2682913.0,1253112.0 L 2682913.0,1253062.0 L 2682938.0,1253062.0 L 2682938.0,1252962.0 L 2682913.0,1252962.0 L 2682913.0,1252937.0 L 2682888.0,1252937.0 L 2682888.0,1252887.0 L 2682863.0,1252887.0 L 2682863.0,1252837.0 L 2682838.0,1252837.0 L 2682838.0,1252762.0 L 2682813.0,1252762.0 L 2682813.0,1252737.0 L 2682788.0,1252737.0 L 2682788.0,1252712.0 L 2682763.0,1252712.0 L 2682763.0,1252687.0 L 2682738.0,1252687.0 L 2682713.0,1252687.0 L 2682713.0,1252637.0 L 2682688.0,1252637.0 L 2682663.0,1252637.0 L 2682663.0,1252587.0 L 2682638.0,1252587.0 L 2682638.0,1252562.0 L 2682613.0,1252562.0 L 2682613.0,1252537.0 L 2682588.0,1252537.0 L 2682563.0,1252537.0 L 2682563.0,1252512.0 L 2682538.0,1252512.0 L 2682538.0,1252487.0 L 2682513.0,1252487.0 L 2682513.0,1252462.0 L 2682488.0,1252462.0 L 2682488.0,1252437.0 L 2682463.0,1252437.0 L 2682438.0,1252437.0 L 2682438.0,1252412.0 L 2682413.0,1252412.0 L 2682413.0,1252387.0 L 2682388.0,1252387.0 L 2682388.0,1252362.0 L 2682363.0,1252362.0 L 2682363.0,1252337.0 L 2682338.0,1252337.0 L 2682338.0,1252312.0 L 2682313.0,1252312.0 L 2682313.0,1252287.0 L 2682288.0,1252287.0 L 2682288.0,1252262.0 L 2682263.0,1252262.0 L 2682238.0,1252262.0 L 2682238.0,1252237.0 L 2682213.0,1252237.0 L 2682188.0,1252237.0 L 2682188.0,1252212.0 L 2682163.0,1252212.0 L 2682113.0,1252212.0 L 2682113.0,1252187.0 L 2682088.0,1252187.0 L 2682088.0,1252162.0 L 2682063.0,1252162.0 L 2682063.0,1252137.0 L 2682038.0,1252137.0 L 2682013.0,1252137.0 L 2682013.0,1252112.0 L 2681988.0,1252112.0 L 2681963.0,1252112.0 L 2681963.0,1252087.0 L 2681938.0,1252087.0 L 2681938.0,1252062.0 L 2681913.0,1252062.0 L 2681913.0,1252037.0 L 2681888.0,1252037.0 L 2681888.0,1251987.0 L 2681863.0,1251987.0 L 2681863.0,1251962.0 L 2681838.0,1251962.0 L 2681838.0,1251937.0 L 2681863.0,1251937.0 L 2681863.0,1251837.0 L 2681888.0,1251837.0 L 2681888.0,1251762.0 L 2681913.0,1251762.0 L 2681913.0,1251737.0 L 2681938.0,1251737.0 L 2681938.0,1251712.0 L 2681963.0,1251712.0 L 2681963.0,1251662.0 L 2681988.0,1251662.0 L 2681988.0,1251587.0 L 2682013.0,1251587.0 L 2682013.0,1251562.0 L 2682038.0,1251562.0 L 2682038.0,1251512.0 L 2682088.0,1251512.0 L 2682088.0,1251462.0 L 2682113.0,1251462.0 L 2682113.0,1251437.0 L 2682163.0,1251437.0 L 2682163.0,1251412.0 L 2682188.0,1251412.0 L 2682188.0,1251387.0 L 2682213.0,1251387.0 L 2682213.0,1251362.0 L 2682238.0,1251362.0 L 2682238.0,1251312.0 L 2682263.0,1251312.0 L 2682263.0,1251287.0 L 2682288.0,1251287.0 L 2682288.0,1251262.0 L 2682313.0,1251262.0 L 2682313.0,1251237.0 L 2682338.0,1251237.0 L 2682338.0,1251212.0 L 2682363.0,1251212.0 L 2682363.0,1251187.0 L 2682388.0,1251187.0 L 2682388.0,1251162.0 L 2682413.0,1251162.0 L 2682413.0,1251137.0 L 2682438.0,1251137.0 L 2682438.0,1251112.0 L 2682463.0,1251112.0 L 2682463.0,1251037.0 L 2682488.0,1251037.0 L 2682488.0,1250962.0 L 2682513.0,1250962.0 L 2682513.0,1250937.0 L 2682538.0,1250937.0 L 2682538.0,1250912.0 L 2682563.0,1250912.0 L 2682563.0,1250887.0 L 2682538.0,1250887.0 L 2682538.0,1250762.0 L 2682563.0,1250762.0 L 2682563.0,1250737.0 L 2682538.0,1250737.0 L 2682538.0,1250662.0 L 2682513.0,1250662.0 L 2682513.0,1250637.0 L 2682488.0,1250637.0 L 2682488.0,1250587.0 L 2682463.0,1250587.0 L 2682463.0,1250562.0 L 2682438.0,1250562.0 L 2682438.0,1250512.0 L 2682413.0,1250512.0 L 2682413.0,1250487.0 L 2682388.0,1250487.0 L 2682388.0,1250437.0 L 2682363.0,1250437.0 L 2682363.0,1250412.0 L 2682338.0,1250412.0 L 2682313.0,1250412.0 L 2682313.0,1250387.0 L 2682288.0,1250387.0 L 2682213.0,1250387.0 L 2682213.0,1250362.0 L 2682188.0,1250362.0 L 2682163.0,1250362.0 L 2682163.0,1250337.0 L 2682138.0,1250337.0 L 2682113.0,1250337.0 L 2682113.0,1250312.0 L 2681863.0,1250312.0 L 2681863.0,1250337.0 L 2681638.0,1250337.0 L 2681638.0,1250312.0 L 2681613.0,1250312.0 L 2681538.0,1250312.0 L 2681538.0,1250287.0 L 2681513.0,1250287.0 L 2681388.0,1250287.0 L 2681388.0,1250262.0 L 2681363.0,1250262.0 L 2681288.0,1250262.0 L 2681288.0,1250237.0 L 2681263.0,1250237.0 L 2681263.0,1250262.0 L 2681238.0,1250262.0 L 2681238.0,1250237.0 L 2681188.0,1250237.0 L 2681188.0,1250287.0 L 2681138.0,1250287.0 L 2681138.0,1250262.0 L 2681113.0,1250262.0 L 2681088.0,1250262.0 L 2681088.0,1250237.0 L 2680938.0,1250237.0 L 2680938.0,1250262.0 L 2680863.0,1250262.0 L 2680863.0,1250287.0 L 2680813.0,1250287.0 L 2680813.0,1250312.0 L 2680788.0,1250312.0 L 2680788.0,1250412.0 L 2680763.0,1250412.0 L 2680763.0,1250437.0 L 2680713.0,1250437.0 L 2680713.0,1250462.0 L 2680688.0,1250462.0 L 2680688.0,1250487.0 L 2680663.0,1250487.0 L 2680663.0,1250537.0 L 2680638.0,1250537.0 L 2680638.0,1250562.0 L 2680613.0,1250562.0 L 2680613.0,1250612.0 L 2680588.0,1250612.0 L 2680588.0,1250687.0 L 2680563.0,1250687.0 L 2680563.0,1250762.0 L 2680588.0,1250762.0 L 2680588.0,1250837.0 L 2680613.0,1250837.0 L 2680613.0,1251062.0 L 2680638.0,1251062.0 L 2680638.0,1251087.0 L 2680663.0,1251087.0 L 2680663.0,1251162.0 L 2680638.0,1251162.0 L 2680638.0,1251187.0 L 2680613.0,1251187.0 L 2680613.0,1251237.0 L 2680538.0,1251237.0 L 2680538.0,1251262.0 L 2680513.0,1251262.0 L 2680513.0,1251237.0 L 2680488.0,1251237.0 L 2680488.0,1251212.0 L 2680463.0,1251212.0 L 2680463.0,1251187.0 L 2680438.0,1251187.0 L 2680363.0,1251187.0 L 2680363.0,1251162.0 L 2680338.0,1251162.0 L 2680338.0,1251137.0 L 2680063.0,1251137.0 L 2680063.0,1251162.0 L 2680013.0,1251162.0 L 2680013.0,1251187.0 L 2679988.0,1251187.0 L 2679988.0,1251162.0 L 2679963.0,1251162.0 L 2679963.0,1251187.0 L 2679938.0,1251187.0 L 2679938.0,1251162.0 L 2679838.0,1251162.0 L 2679838.0,1251187.0 L 2679713.0,1251187.0 L 2679713.0,1251212.0 L 2679638.0,1251212.0 L 2679638.0,1251237.0 L 2679513.0,1251237.0 L 2679513.0,1251262.0 L 2679413.0,1251262.0 L 2679413.0,1251287.0 L 2679338.0,1251287.0 L 2679338.0,1251312.0 L 2679288.0,1251312.0 L 2679288.0,1251287.0 L 2679263.0,1251287.0 L 2679263.0,1251312.0 L 2679163.0,1251312.0 L 2679163.0,1251337.0 L 2679088.0,1251337.0 L 2679088.0,1251312.0 L 2678988.0,1251312.0 L 2678988.0,1251337.0 L 2678913.0,1251337.0 L 2678913.0,1251312.0 L 2678888.0,1251312.0 L 2678863.0,1251312.0 L 2678863.0,1251287.0 L 2678838.0,1251287.0 L 2678838.0,1251262.0 L 2678813.0,1251262.0 L 2678813.0,1251237.0 L 2678788.0,1251237.0 L 2678788.0,1251212.0 L 2678813.0,1251212.0 L 2678813.0,1251187.0 L 2678788.0,1251187.0 L 2678788.0,1251162.0 L 2678813.0,1251162.0 L 2678813.0,1251137.0 L 2678788.0,1251137.0 L 2678638.0,1251137.0 L 2678638.0,1251112.0 L 2678513.0,1251112.0 L 2678513.0,1251137.0 L 2678463.0,1251137.0 L 2678463.0,1251112.0 L 2678438.0,1251112.0 L 2678413.0,1251112.0 L 2678413.0,1251087.0 L 2678388.0,1251087.0 L 2678363.0,1251087.0 L 2678363.0,1251062.0 L 2678338.0,1251062.0 L 2678263.0,1251062.0 L 2678263.0,1251037.0 L 2678238.0,1251037.0 L 2678238.0,1251012.0 L 2678213.0,1251012.0 L 2678188.0,1251012.0 L 2678188.0,1250937.0 L 2678163.0,1250937.0 L 2678163.0,1250912.0 L 2678188.0,1250912.0 L 2678188.0,1250862.0 L 2678163.0,1250862.0 L 2678163.0,1250787.0 L 2678138.0,1250787.0 L 2678113.0,1250787.0 L 2678113.0,1250762.0 L 2678088.0,1250762.0 L 2678088.0,1250787.0 L 2678113.0,1250787.0 L 2678113.0,1250812.0 L 2678038.0,1250812.0 L 2678038.0,1250862.0 L 2677988.0,1250862.0 L 2677988.0,1250912.0 L 2677913.0,1250912.0 L 2677913.0,1250937.0 L 2677863.0,1250937.0 L 2677863.0,1250962.0 L 2677838.0,1250962.0 L 2677838.0,1250987.0 L 2677813.0,1250987.0 L 2677813.0,1251012.0 L 2677788.0,1251012.0 L 2677788.0,1251037.0 L 2677763.0,1251037.0 L 2677763.0,1251062.0 L 2677738.0,1251062.0 L 2677738.0,1251087.0 L 2677688.0,1251087.0 L 2677688.0,1251112.0 L 2677638.0,1251112.0 L 2677638.0,1251137.0 L 2677613.0,1251137.0 L 2677613.0,1251187.0 L 2677588.0,1251187.0 L 2677588.0,1251212.0 L 2677613.0,1251212.0 L 2677613.0,1251312.0 L 2677588.0,1251312.0 L 2677588.0,1251387.0 L 2677563.0,1251387.0 L 2677563.0,1251412.0 L 2677538.0,1251412.0 L 2677538.0,1251437.0 L 2677513.0,1251437.0 L 2677513.0,1251462.0 L 2677488.0,1251462.0 L 2677488.0,1251512.0 L 2677438.0,1251512.0 L 2677438.0,1251537.0 L 2677413.0,1251537.0 L 2677413.0,1251562.0 L 2677388.0,1251562.0 L 2677388.0,1251587.0 L 2677363.0,1251587.0 L 2677363.0,1251612.0 L 2677313.0,1251612.0 L 2677313.0,1251637.0 L 2677238.0,1251637.0 L 2677238.0,1251662.0 L 2677213.0,1251662.0 L 2677213.0,1251687.0 L 2677163.0,1251687.0 L 2677163.0,1251712.0 L 2677138.0,1251712.0 L 2677138.0,1251737.0 L 2677088.0,1251737.0 L 2677088.0,1251762.0 L 2677063.0,1251762.0 L 2677063.0,1251787.0 L 2677038.0,1251787.0 L 2677038.0,1251812.0 L 2676988.0,1251812.0 L 2676988.0,1251837.0 L 2676963.0,1251837.0 L 2676963.0,1251862.0 L 2676913.0,1251862.0 L 2676913.0,1251887.0 L 2676813.0,1251887.0 L 2676813.0,1251912.0 L 2676788.0,1251912.0 L 2676788.0,1251937.0 L 2676713.0,1251937.0 L 2676713.0,1251962.0 L 2676688.0,1251962.0 L 2676688.0,1251987.0 L 2676613.0,1251987.0 L 2676613.0,1252012.0 L 2676488.0,1252012.0 L 2676488.0,1252037.0 L 2676363.0,1252037.0 L 2676363.0,1252062.0 L 2676188.0,1252062.0 L 2676188.0,1252087.0 L 2676138.0,1252087.0 L 2676138.0,1252062.0 L 2676113.0,1252062.0 L 2675863.0,1252062.0 L 2675863.0,1252037.0 L 2675838.0,1252037.0 L 2675788.0,1252037.0 L 2675788.0,1252012.0 L 2675763.0,1252012.0 L 2675738.0,1252012.0 L 2675738.0,1251937.0 L 2675763.0,1251937.0 L 2675763.0,1251912.0 L 2675813.0,1251912.0 L 2675813.0,1251862.0 L 2675838.0,1251862.0 L 2675838.0,1251787.0 L 2675863.0,1251787.0 L 2675863.0,1251762.0 L 2675888.0,1251762.0 L 2675888.0,1251737.0 L 2675963.0,1251737.0 L 2675963.0,1251712.0 L 2676013.0,1251712.0 L 2676013.0,1251687.0 L 2676038.0,1251687.0 L 2676038.0,1251662.0 L 2676063.0,1251662.0 L 2676063.0,1251637.0 L 2676088.0,1251637.0 L 2676088.0,1251587.0 L 2676163.0,1251587.0 L 2676163.0,1251562.0 L 2676188.0,1251562.0 L 2676188.0,1251537.0 L 2676213.0,1251537.0 L 2676213.0,1251487.0 L 2676263.0,1251487.0 L 2676263.0,1251437.0 L 2676363.0,1251437.0 L 2676363.0,1251412.0 L 2676488.0,1251412.0 L 2676488.0,1251387.0 L 2676588.0,1251387.0 L 2676588.0,1251362.0 L 2676688.0,1251362.0 L 2676688.0,1251337.0 L 2676763.0,1251337.0 L 2676763.0,1251312.0 L 2676788.0,1251312.0 L 2676788.0,1251287.0 L 2676813.0,1251287.0 L 2676813.0,1251112.0 L 2676838.0,1251112.0 L 2676838.0,1251062.0 L 2676813.0,1251062.0 L 2676813.0,1251037.0 L 2676788.0,1251037.0 L 2676788.0,1251012.0 L 2676763.0,1251012.0 L 2676763.0,1250987.0 L 2676738.0,1250987.0 L 2676713.0,1250987.0 L 2676713.0,1250962.0 L 2676688.0,1250962.0 L 2676638.0,1250962.0 L 2676638.0,1250937.0 L 2676613.0,1250937.0 L 2676588.0,1250937.0 L 2676588.0,1250912.0 L 2676563.0,1250912.0 L 2676538.0,1250912.0 L 2676538.0,1250887.0 L 2676288.0,1250887.0 L 2676288.0,1250912.0 L 2676213.0,1250912.0 L 2676213.0,1250937.0 L 2676088.0,1250937.0 L 2676088.0,1250962.0 L 2675963.0,1250962.0 L 2675963.0,1250987.0 L 2675838.0,1250987.0 L 2675838.0,1251012.0 L 2675763.0,1251012.0 L 2675763.0,1250987.0 L 2675738.0,1250987.0 L 2675688.0,1250987.0 L 2675688.0,1250962.0 L 2675663.0,1250962.0 L 2675663.0,1250937.0 L 2675638.0,1250937.0 L 2675613.0,1250937.0 L 2675613.0,1250912.0 L 2675588.0,1250912.0 L 2675538.0,1250912.0 L 2675538.0,1250887.0 L 2675513.0,1250887.0 L 2675488.0,1250887.0 L 2675488.0,1250862.0 L 2675463.0,1250862.0 L 2675438.0,1250862.0 L 2675438.0,1250837.0 L 2675413.0,1250837.0 L 2675363.0,1250837.0 L 2675363.0,1250812.0 L 2675338.0,1250812.0 L 2675313.0,1250812.0 L 2675313.0,1250787.0 L 2675288.0,1250787.0 L 2675238.0,1250787.0 L 2675238.0,1250762.0 L 2675213.0,1250762.0 L 2675063.0,1250762.0 L 2675063.0,1250737.0 L 2675038.0,1250737.0 L 2674963.0,1250737.0 L 2674963.0,1250712.0 L 2674938.0,1250712.0 L 2674913.0,1250712.0 L 2674913.0,1250687.0 L 2674888.0,1250687.0 L 2674888.0,1250662.0 L 2674863.0,1250662.0 L 2674838.0,1250662.0 L 2674838.0,1250637.0 L 2674813.0,1250637.0 L 2674763.0,1250637.0 L 2674763.0,1250612.0 L 2674738.0,1250612.0 L 2674738.0,1250587.0 L 2674713.0,1250587.0 L 2674688.0,1250587.0 L 2674688.0,1250562.0 L 2674663.0,1250562.0 L 2674463.0,1250562.0 L 2674463.0,1250537.0 L 2674288.0,1250537.0 L 2674288.0,1250562.0 L 2674263.0,1250562.0 L 2674263.0,1250587.0 L 2674163.0,1250587.0 L 2674163.0,1250562.0 L 2674138.0,1250562.0 L 2674113.0,1250562.0 L 2674113.0,1250537.0 L 2674088.0,1250537.0 L 2674063.0,1250537.0 L 2674063.0,1250512.0 L 2674038.0,1250512.0 L 2674013.0,1250512.0 L 2674013.0,1250487.0 L 2673988.0,1250487.0 L 2673988.0,1250462.0 L 2673963.0,1250462.0 L 2673938.0,1250462.0 L 2673938.0,1250437.0 L 2673913.0,1250437.0 L 2673863.0,1250437.0 L 2673863.0,1250412.0 L 2673838.0,1250412.0 L 2673813.0,1250412.0 L 2673813.0,1250387.0 L 2673788.0,1250387.0 L 2673788.0,1250337.0 L 2673763.0,1250337.0 L 2673763.0,1250362.0 L 2673713.0,1250362.0 L 2673713.0,1250337.0 L 2673688.0,1250337.0 L 2673688.0,1250312.0 L 2673713.0,1250312.0 L 2673713.0,1250212.0 L 2673688.0,1250212.0 L 2673663.0,1250212.0 L 2673663.0,1250187.0 L 2673638.0,1250187.0 L 2673613.0,1250187.0 L 2673613.0,1250162.0 L 2673588.0,1250162.0 L 2673588.0,1250137.0 L 2673563.0,1250137.0 L 2673563.0,1250087.0 L 2673538.0,1250087.0 L 2673538.0,1249912.0 L 2673563.0,1249912.0 L 2673563.0,1249862.0 L 2673588.0,1249862.0 L 2673588.0,1249837.0 L 2673613.0,1249837.0 L 2673613.0,1249737.0 L 2673638.0,1249737.0 L 2673638.0,1249612.0 L 2673663.0,1249612.0 L 2673663.0,1249537.0 L 2673688.0,1249537.0 L 2673688.0,1249512.0 L 2673713.0,1249512.0 L 2673713.0,1249487.0 L 2673738.0,1249487.0 L 2673738.0,1249437.0 L 2673763.0,1249437.0 L 2673763.0,1249412.0 L 2673788.0,1249412.0 L 2673788.0,1249362.0 L 2673813.0,1249362.0 L 2673813.0,1249312.0 L 2673838.0,1249312.0 L 2673838.0,1249287.0 L 2673863.0,1249287.0 L 2673863.0,1249262.0 L 2673888.0,1249262.0 L 2673888.0,1249212.0 L 2673913.0,1249212.0 L 2673913.0,1249187.0 L 2673938.0,1249187.0 L 2673938.0,1249162.0 L 2673963.0,1249162.0 L 2673963.0,1249137.0 L 2673988.0,1249137.0 L 2673988.0,1249087.0 L 2674013.0,1249087.0 L 2674013.0,1249062.0 L 2674038.0,1249062.0 L 2674038.0,1249037.0 L 2674063.0,1249037.0 L 2674063.0,1249012.0 L 2674088.0,1249012.0 L 2674088.0,1248987.0 L 2674138.0,1248987.0 L 2674138.0,1248962.0 L 2674238.0,1248962.0 L 2674238.0,1248887.0 L 2674213.0,1248887.0 L 2674213.0,1248862.0 L 2674238.0,1248862.0 L 2674238.0,1248812.0 L 2674263.0,1248812.0 L 2674263.0,1248662.0 L 2674238.0,1248662.0 L 2674238.0,1248537.0 L 2674213.0,1248537.0 L 2674213.0,1248487.0 L 2674238.0,1248487.0 L 2674238.0,1248437.0 L 2674263.0,1248437.0 L 2674263.0,1248412.0 L 2674313.0,1248412.0 L 2674313.0,1248337.0 L 2674363.0,1248337.0 L 2674363.0,1248312.0 L 2674388.0,1248312.0 L 2674388.0,1248262.0 L 2674438.0,1248262.0 L 2674438.0,1248237.0 L 2674463.0,1248237.0 L 2674463.0,1248187.0 L 2674488.0,1248187.0 L 2674488.0,1248212.0 L 2674538.0,1248212.0 L 2674538.0,1248187.0 L 2674563.0,1248187.0 L 2674563.0,1248212.0 L 2674588.0,1248212.0 L 2674613.0,1248212.0 L 2674613.0,1248262.0 L 2674638.0,1248262.0 L 2674638.0,1248287.0 L 2674663.0,1248287.0 L 2674663.0,1248312.0 L 2674688.0,1248312.0 L 2674688.0,1248362.0 L 2674713.0,1248362.0 L 2674713.0,1248412.0 L 2674738.0,1248412.0 L 2674738.0,1248437.0 L 2674763.0,1248437.0 L 2674763.0,1248462.0 L 2674788.0,1248462.0 L 2674788.0,1248537.0 L 2674813.0,1248537.0 L 2674813.0,1248662.0 L 2674838.0,1248662.0 L 2674838.0,1248737.0 L 2674863.0,1248737.0 L 2674863.0,1248787.0 L 2674888.0,1248787.0 L 2674888.0,1248837.0 L 2674913.0,1248837.0 L 2674913.0,1248887.0 L 2674938.0,1248887.0 L 2674938.0,1249012.0 L 2674963.0,1249012.0 L 2674963.0,1249062.0 L 2674988.0,1249062.0 L 2674988.0,1249112.0 L 2675013.0,1249112.0 L 2675013.0,1249162.0 L 2675038.0,1249162.0 L 2675038.0,1249212.0 L 2675063.0,1249212.0 L 2675063.0,1249262.0 L 2675088.0,1249262.0 L 2675088.0,1249287.0 L 2675113.0,1249287.0 L 2675113.0,1249312.0 L 2675138.0,1249312.0 L 2675138.0,1249412.0 L 2675163.0,1249412.0 L 2675163.0,1249487.0 L 2675188.0,1249487.0 L 2675188.0,1249512.0 L 2675213.0,1249512.0 L 2675213.0,1249562.0 L 2675263.0,1249562.0 L 2675288.0,1249562.0 L 2675288.0,1249587.0 L 2675413.0,1249587.0 L 2675438.0,1249587.0 L 2675438.0,1249612.0 L 2675538.0,1249612.0 L 2675563.0,1249612.0 L 2675563.0,1249637.0 L 2675638.0,1249637.0 L 2675663.0,1249637.0 L 2675663.0,1249662.0 L 2675713.0,1249662.0 L 2675713.0,1249637.0 L 2675988.0,1249637.0 L 2675988.0,1249662.0 L 2676138.0,1249662.0 L 2676163.0,1249662.0 L 2676163.0,1249687.0 L 2676213.0,1249687.0 L 2676238.0,1249687.0 L 2676238.0,1249712.0 L 2676288.0,1249712.0 L 2676313.0,1249712.0 L 2676313.0,1249737.0 L 2676363.0,1249737.0 L 2676388.0,1249737.0 L 2676388.0,1249762.0 L 2676463.0,1249762.0 L 2676488.0,1249762.0 L 2676488.0,1249787.0 L 2676513.0,1249787.0 L 2676538.0,1249787.0 L 2676538.0,1249812.0 L 2676588.0,1249812.0 L 2676613.0,1249812.0 L 2676613.0,1249837.0 L 2676663.0,1249837.0 L 2676688.0,1249837.0 L 2676688.0,1249862.0 L 2677063.0,1249862.0 L 2677063.0,1249837.0 L 2677213.0,1249837.0 L 2677213.0,1249812.0 L 2677313.0,1249812.0 L 2677313.0,1249787.0 L 2677413.0,1249787.0 L 2677413.0,1249737.0 L 2677488.0,1249737.0 L 2677488.0,1249712.0 L 2677513.0,1249712.0 L 2677513.0,1249687.0 L 2677588.0,1249687.0 L 2677588.0,1249662.0 L 2677613.0,1249662.0 L 2677613.0,1249637.0 L 2677638.0,1249637.0 L 2677638.0,1249612.0 L 2677688.0,1249612.0 L 2677688.0,1249587.0 L 2677713.0,1249587.0 L 2677713.0,1249562.0 L 2677738.0,1249562.0 L 2677738.0,1249537.0 L 2677763.0,1249537.0 L 2677763.0,1249512.0 L 2677788.0,1249512.0 L 2677788.0,1249487.0 L 2677838.0,1249487.0 L 2677838.0,1249462.0 L 2677863.0,1249462.0 L 2677863.0,1249437.0 L 2677888.0,1249437.0 L 2677888.0,1249412.0 L 2677913.0,1249412.0 L 2677913.0,1249387.0 L 2677938.0,1249387.0 L 2677938.0,1249337.0 L 2677963.0,1249337.0 L 2677963.0,1249262.0 L 2677988.0,1249262.0 L 2677988.0,1249212.0 L 2678013.0,1249212.0 L 2678013.0,1249162.0 L 2678038.0,1249162.0 L 2678038.0,1249037.0 L 2678063.0,1249037.0 L 2678063.0,1248987.0 L 2678088.0,1248987.0 L 2678088.0,1248937.0 L 2678113.0,1248937.0 L 2678113.0,1248887.0 L 2678138.0,1248887.0 L 2678138.0,1248862.0 L 2678163.0,1248862.0 L 2678163.0,1248837.0 L 2678188.0,1248837.0 L 2678188.0,1248812.0 L 2678213.0,1248812.0 L 2678213.0,1248787.0 L 2678238.0,1248787.0 L 2678238.0,1248737.0 L 2678263.0,1248737.0 L 2678263.0,1248687.0 L 2678288.0,1248687.0 L 2678288.0,1248662.0 L 2678313.0,1248662.0 L 2678313.0,1248637.0 L 2678338.0,1248637.0 L 2678338.0,1248612.0 L 2678363.0,1248612.0 L 2678363.0,1248587.0 L 2678388.0,1248587.0 L 2678388.0,1248562.0 L 2678413.0,1248562.0 L 2678413.0,1248537.0 L 2678438.0,1248537.0 L 2678438.0,1248512.0 L 2678463.0,1248512.0 L 2678463.0,1248487.0 L 2678488.0,1248487.0 L 2678488.0,1248437.0 L 2678513.0,1248437.0 L 2678513.0,1248412.0 L 2678538.0,1248412.0 L 2678538.0,1248362.0 L 2678563.0,1248362.0 L 2678563.0,1248337.0 L 2678588.0,1248337.0 L 2678588.0,1248312.0 L 2678613.0,1248312.0 L 2678613.0,1248287.0 L 2678663.0,1248287.0 L 2678663.0,1248262.0 L 2678688.0,1248262.0 L 2678688.0,1248212.0 L 2678713.0,1248212.0 L 2678713.0,1248187.0 L 2678738.0,1248187.0 L 2678738.0,1248012.0 L 2678763.0,1248012.0 L 2678763.0,1247987.0 L 2678788.0,1247987.0 L 2678788.0,1247937.0 L 2678813.0,1247937.0 L 2678813.0,1247862.0 L 2678838.0,1247862.0 L 2678838.0,1247837.0 L 2678863.0,1247837.0 L 2678863.0,1247737.0 L 2678888.0,1247737.0 L 2678888.0,1247587.0 L 2678913.0,1247587.0 L 2678913.0,1247562.0 L 2678938.0,1247562.0 L 2678938.0,1247537.0 L 2678963.0,1247537.0 L 2678963.0,1247487.0 L 2678988.0,1247487.0 L 2678988.0,1247462.0 L 2678963.0,1247462.0 L 2678963.0,1247437.0 L 2678988.0,1247437.0 L 2678988.0,1247362.0 L 2679013.0,1247362.0 L 2679013.0,1247312.0 L 2679038.0,1247312.0 L 2679038.0,1247287.0 L 2679063.0,1247287.0 L 2679063.0,1247237.0 L 2679088.0,1247237.0 L 2679088.0,1247212.0 L 2679113.0,1247212.0 L 2679113.0,1247187.0 L 2679163.0,1247187.0 L 2679163.0,1247162.0 L 2679188.0,1247162.0 L 2679188.0,1247137.0 L 2679213.0,1247137.0 L 2679213.0,1247112.0 L 2679238.0,1247112.0 L 2679238.0,1247087.0 L 2679263.0,1247087.0 L 2679263.0,1247037.0 L 2679288.0,1247037.0 L 2679288.0,1247012.0 L 2679338.0,1247012.0 L 2679338.0,1246987.0 L 2679363.0,1246987.0 L 2679363.0,1246962.0 L 2679388.0,1246962.0 L 2679388.0,1246937.0 L 2679413.0,1246937.0 L 2679413.0,1246912.0 L 2679438.0,1246912.0 L 2679438.0,1246887.0 L 2679463.0,1246887.0 L 2679463.0,1246862.0 L 2679488.0,1246862.0 L 2679488.0,1246837.0 L 2679513.0,1246837.0 L 2679513.0,1246812.0 L 2679538.0,1246812.0 L 2679538.0,1246787.0 L 2679563.0,1246787.0 L 2679563.0,1246762.0 L 2679588.0,1246762.0 L 2679588.0,1246737.0 L 2679638.0,1246737.0 L 2679638.0,1246687.0 L 2679688.0,1246687.0 L 2679688.0,1246662.0 L 2679713.0,1246662.0 L 2679713.0,1246637.0 L 2679788.0,1246637.0 L 2679788.0,1246612.0 L 2679863.0,1246612.0 L 2679863.0,1246587.0 L 2679888.0,1246587.0 L 2679888.0,1246562.0 L 2679913.0,1246562.0 L 2679913.0,1246537.0 L 2679963.0,1246537.0 L 2679963.0,1246512.0 L 2679988.0,1246512.0 L 2679988.0,1246487.0 L 2680038.0,1246487.0 L 2680038.0,1246462.0 L 2680188.0,1246462.0 L 2680188.0,1246437.0 L 2680213.0,1246437.0 L 2680213.0,1246412.0 L 2680238.0,1246412.0 L 2680238.0,1246387.0 L 2680263.0,1246387.0 L 2680263.0,1246337.0 L 2680313.0,1246337.0 L 2680313.0,1246312.0 L 2680338.0,1246312.0 L 2680338.0,1246287.0 L 2680388.0,1246287.0 L 2680388.0,1246262.0 L 2680413.0,1246262.0 L 2680413.0,1246212.0 L 2680463.0,1246212.0 L 2680463.0,1246162.0 L 2680488.0,1246162.0 L 2680488.0,1246137.0 L 2680513.0,1246137.0 L 2680513.0,1246112.0 L 2680538.0,1246112.0 L 2680538.0,1246087.0 L 2680563.0,1246087.0 L 2680563.0,1246062.0 L 2680588.0,1246062.0 L 2680588.0,1246012.0 L 2680613.0,1246012.0 L 2680613.0,1245962.0 L 2680638.0,1245962.0 L 2680638.0,1245862.0 L 2680663.0,1245862.0 L 2680663.0,1245787.0 L 2680688.0,1245787.0 L 2680688.0,1245762.0 L 2680713.0,1245762.0 L 2680713.0,1245462.0 L 2680738.0,1245462.0 L 2680738.0,1245412.0 L 2680763.0,1245412.0 L 2680763.0,1245387.0 L 2680788.0,1245387.0 L 2680788.0,1245362.0 L 2680838.0,1245362.0 L 2680838.0,1245337.0 L 2680863.0,1245337.0 L 2680863.0,1245312.0 L 2680988.0,1245312.0 L 2680988.0,1245287.0 L 2681013.0,1245287.0 L 2681013.0,1245312.0 L 2681113.0,1245312.0 L 2681138.0,1245312.0 L 2681138.0,1245337.0 L 2681163.0,1245337.0 L 2681163.0,1245312.0 L 2681188.0,1245312.0 L 2681188.0,1245337.0 L 2681213.0,1245337.0 L 2681213.0,1245387.0 L 2681288.0,1245387.0 L 2681313.0,1245387.0 L 2681313.0,1245412.0 L 2681338.0,1245412.0 L 2681338.0,1245437.0 L 2681438.0,1245437.0 L 2681438.0,1245412.0 L 2681713.0,1245412.0 L 2681713.0,1245387.0 L 2681763.0,1245387.0 L 2681763.0,1245362.0 L 2681813.0,1245362.0 L 2681813.0,1245337.0 L 2681863.0,1245337.0 L 2681863.0,1245312.0 L 2681938.0,1245312.0 L 2681938.0,1245262.0 L 2681963.0,1245262.0 L 2681963.0,1245237.0 L 2681988.0,1245237.0 L 2681988.0,1245162.0 L 2682013.0,1245162.0 L 2682013.0,1245112.0 L 2681988.0,1245112.0 L 2681988.0,1244962.0 L 2682013.0,1244962.0 L 2682013.0,1244912.0 L 2682038.0,1244912.0 L 2682038.0,1244862.0 L 2682013.0,1244862.0 L 2682013.0,1244837.0 L 2682038.0,1244837.0 L 2682038.0,1244662.0 L 2682013.0,1244662.0 L 2682013.0,1244612.0 L 2682038.0,1244612.0 L 2682038.0,1244587.0 L 2682013.0,1244587.0 L 2682013.0,1244537.0 L 2681988.0,1244537.0 L 2681988.0,1244487.0 L 2681963.0,1244487.0 L 2681963.0,1244437.0 L 2681938.0,1244437.0 L 2681938.0,1244412.0 L 2681913.0,1244412.0 L 2681913.0,1244387.0 L 2681888.0,1244387.0 L 2681888.0,1244312.0 L 2681863.0,1244312.0 L 2681863.0,1244262.0 L 2681838.0,1244262.0 L 2681838.0,1244237.0 L 2681813.0,1244237.0 L 2681813.0,1244212.0 L 2681788.0,1244212.0 L 2681788.0,1244162.0 L 2681763.0,1244162.0 L 2681763.0,1244137.0 L 2681738.0,1244137.0 L 2681738.0,1244087.0 L 2681713.0,1244087.0 L 2681713.0,1244062.0 L 2681688.0,1244062.0 L 2681688.0,1244012.0 L 2681663.0,1244012.0 L 2681663.0,1243987.0 L 2681638.0,1243987.0 L 2681638.0,1243912.0 L 2681613.0,1243912.0 L 2681613.0,1243887.0 L 2681588.0,1243887.0 L 2681588.0,1243837.0 L 2681563.0,1243837.0 L 2681563.0,1243787.0 L 2681538.0,1243787.0 L 2681538.0,1243687.0 L 2681513.0,1243687.0 L 2681513.0,1243637.0 L 2681488.0,1243637.0 L 2681488.0,1243487.0 L 2681513.0,1243487.0 L 2681513.0,1243437.0 L 2681538.0,1243437.0 L 2681538.0,1243412.0 L 2681563.0,1243412.0 L 2681563.0,1243387.0 L 2681588.0,1243387.0 L 2681588.0,1243362.0 L 2681613.0,1243362.0 L 2681613.0,1243337.0 L 2681638.0,1243337.0 L 2681638.0,1243312.0 L 2681713.0,1243312.0 L 2681713.0,1243287.0 L 2681738.0,1243287.0 L 2681738.0,1243312.0 L 2681913.0,1243312.0 L 2681938.0,1243312.0 L 2681938.0,1243337.0 L 2681963.0,1243337.0 L 2681963.0,1243312.0 L 2682013.0,1243312.0 L 2682013.0,1243287.0 L 2682163.0,1243287.0 L 2682163.0,1243262.0 L 2682213.0,1243262.0 L 2682213.0,1243237.0 L 2682238.0,1243237.0 L 2682238.0,1243212.0 L 2682263.0,1243212.0 L 2682263.0,1243162.0 L 2682313.0,1243162.0 L 2682313.0,1243112.0 L 2682338.0,1243112.0 L 2682338.0,1243062.0 L 2682363.0,1243062.0 L 2682363.0,1243037.0 L 2682388.0,1243037.0 L 2682388.0,1243012.0 L 2682413.0,1243012.0 L 2682413.0,1242962.0 L 2682488.0,1242962.0 L 2682488.0,1242937.0 L 2682513.0,1242937.0 L 2682513.0,1242887.0 L 2682538.0,1242887.0 L 2682538.0,1242862.0 L 2682613.0,1242862.0 L 2682613.0,1242812.0 L 2682663.0,1242812.0 L 2682663.0,1242737.0 L 2682713.0,1242737.0 L 2682713.0,1242712.0 L 2682688.0,1242712.0 L 2682688.0,1242662.0 L 2682713.0,1242662.0 L 2682713.0,1242562.0 L 2682838.0,1242562.0 L 2682838.0,1242612.0 L 2682863.0,1242612.0 L 2682863.0,1242637.0 L 2682888.0,1242637.0 L 2682888.0,1242612.0 L 2682913.0,1242612.0 L 2682913.0,1242712.0 L 2682938.0,1242712.0 L 2682963.0,1242712.0 L 2682963.0,1242737.0 L 2682988.0,1242737.0 L 2683013.0,1242737.0 L 2683013.0,1242787.0 L 2683038.0,1242787.0 L 2683038.0,1242812.0 L 2683063.0,1242812.0 L 2683063.0,1242787.0 L 2683088.0,1242787.0 L 2683088.0,1242737.0 L 2683113.0,1242737.0 L 2683113.0,1242712.0 L 2683163.0,1242712.0 L 2683163.0,1242662.0 L 2683188.0,1242662.0 L 2683188.0,1242512.0 L 2683213.0,1242512.0 L 2683213.0,1242462.0 L 2683238.0,1242462.0 L 2683238.0,1242412.0 L 2683263.0,1242412.0 L 2683263.0,1242387.0 L 2683288.0,1242387.0 L 2683288.0,1242337.0 L 2683263.0,1242337.0 L 2683263.0,1242312.0 L 2683288.0,1242312.0 L 2683288.0,1242262.0 L 2683313.0,1242262.0 L 2683313.0,1242212.0 L 2683338.0,1242212.0 L 2683338.0,1242187.0 L 2683363.0,1242187.0 L 2683363.0,1242087.0 L 2683388.0,1242087.0 L 2683388.0,1242062.0 L 2683363.0,1242062.0 L 2683363.0,1242037.0 L 2683388.0,1242037.0 L 2683388.0,1241962.0 L 2683413.0,1241962.0 L 2683413.0,1241862.0 L 2683388.0,1241862.0 L 2683363.0,1241862.0 L 2683363.0,1241837.0 L 2683338.0,1241837.0 L 2683338.0,1241787.0 L 2683313.0,1241787.0 L 2683313.0,1241762.0 L 2683288.0,1241762.0 L 2683288.0,1241737.0 L 2683313.0,1241737.0 L 2683313.0,1241687.0 L 2683338.0,1241687.0 L 2683338.0,1241662.0 L 2683313.0,1241662.0 L 2683263.0,1241662.0 L 2683263.0,1241637.0 L 2683213.0,1241637.0 L 2683213.0,1241662.0 L 2683188.0,1241662.0 L 2683188.0,1241637.0 L 2683163.0,1241637.0 L 2683163.0,1241612.0 L 2683138.0,1241612.0 L 2683013.0,1241612.0 L 2683013.0,1241587.0 L 2682988.0,1241587.0 L 2682988.0,1241537.0 L 2682963.0,1241537.0 L 2682963.0,1241512.0 L 2682838.0,1241512.0 L 2682838.0,1241537.0 L 2682788.0,1241537.0 L 2682788.0,1241512.0 L 2682763.0,1241512.0 L 2682763.0,1241487.0 L 2682738.0,1241487.0 L 2682738.0,1241512.0 L 2682638.0,1241512.0 L 2682638.0,1241537.0 L 2682613.0,1241537.0 L 2682613.0,1241562.0 L 2682538.0,1241562.0 L 2682538.0,1241587.0 L 2682513.0,1241587.0 L 2682513.0,1241612.0 L 2682438.0,1241612.0 L 2682438.0,1241637.0 L 2682413.0,1241637.0 L 2682413.0,1241662.0 L 2682388.0,1241662.0 L 2682388.0,1241712.0 L 2682338.0,1241712.0 L 2682338.0,1241737.0 L 2682288.0,1241737.0 L 2682288.0,1241762.0 L 2682238.0,1241762.0 L 2682238.0,1241737.0 L 2682163.0,1241737.0 L 2682163.0,1241762.0 L 2682113.0,1241762.0 L 2682113.0,1241787.0 L 2681938.0,1241787.0 L 2681938.0,1241762.0 L 2681838.0,1241762.0 L 2681838.0,1241787.0 L 2681788.0,1241787.0 L 2681788.0,1241812.0 L 2681688.0,1241812.0 L 2681688.0,1241837.0 L 2681663.0,1241837.0 L 2681663.0,1241862.0 L 2681613.0,1241862.0 L 2681613.0,1241887.0 L 2681588.0,1241887.0 L 2681588.0,1241862.0 L 2681563.0,1241862.0 L 2681563.0,1241837.0 L 2681538.0,1241837.0 L 2681538.0,1241787.0 L 2681513.0,1241787.0 L 2681513.0,1241737.0 L 2681488.0,1241737.0 L 2681488.0,1241687.0 L 2681463.0,1241687.0 L 2681463.0,1241462.0 L 2681488.0,1241462.0 L 2681488.0,1241387.0 L 2681513.0,1241387.0 L 2681513.0,1241312.0 L 2681538.0,1241312.0 L 2681538.0,1241262.0 L 2681563.0,1241262.0 L 2681563.0,1241212.0 L 2681588.0,1241212.0 L 2681588.0,1241162.0 L 2681613.0,1241162.0 L 2681613.0,1241062.0 L 2681638.0,1241062.0 L 2681638.0,1240962.0 L 2681663.0,1240962.0 L 2681663.0,1240887.0 L 2681688.0,1240887.0 L 2681688.0,1240812.0 L 2681713.0,1240812.0 L 2681713.0,1240737.0 L 2681738.0,1240737.0 L 2681738.0,1240637.0 L 2681763.0,1240637.0 L 2681763.0,1240487.0 L 2681788.0,1240487.0 L 2681788.0,1240437.0 L 2681813.0,1240437.0 L 2681813.0,1240362.0 L 2681838.0,1240362.0 L 2681838.0,1240312.0 L 2681863.0,1240312.0 L 2681863.0,1240112.0 L 2681888.0,1240112.0 L 2681888.0,1240062.0 L 2681913.0,1240062.0 L 2681913.0,1240012.0 L 2681888.0,1240012.0 L 2681888.0,1239862.0 L 2681913.0,1239862.0 L 2681913.0,1239712.0 L 2681938.0,1239712.0 L 2681938.0,1239687.0 L 2681988.0,1239687.0 L 2681988.0,1239662.0 L 2682013.0,1239662.0 L 2682013.0,1239637.0 L 2682038.0,1239637.0 L 2682038.0,1239612.0 L 2682063.0,1239612.0 L 2682063.0,1239587.0 L 2682113.0,1239587.0 L 2682113.0,1239562.0 L 2682188.0,1239562.0 L 2682188.0,1239587.0 L 2682213.0,1239587.0 L 2682238.0,1239587.0 L 2682238.0,1239662.0 L 2682263.0,1239662.0 L 2682263.0,1239837.0 L 2682288.0,1239837.0 L 2682288.0,1239887.0 L 2682313.0,1239887.0 L 2682313.0,1239912.0 L 2682288.0,1239912.0 L 2682288.0,1239937.0 L 2682313.0,1239937.0 L 2682313.0,1239987.0 L 2682338.0,1239987.0 L 2682338.0,1240037.0 L 2682363.0,1240037.0 L 2682363.0,1240062.0 L 2682388.0,1240062.0 L 2682388.0,1240087.0 L 2682413.0,1240087.0 L 2682413.0,1240112.0 L 2682438.0,1240112.0 L 2682438.0,1240137.0 L 2682463.0,1240137.0 L 2682463.0,1240187.0 L 2682513.0,1240187.0 L 2682538.0,1240187.0 L 2682538.0,1240212.0 L 2682563.0,1240212.0 L 2682563.0,1240262.0 L 2682588.0,1240262.0 L 2682588.0,1240312.0 L 2682613.0,1240312.0 L 2682613.0,1240337.0 L 2682638.0,1240337.0 L 2682638.0,1240362.0 L 2682663.0,1240362.0 L 2682663.0,1240387.0 L 2682688.0,1240387.0 L 2682688.0,1240412.0 L 2682713.0,1240412.0 L 2682713.0,1240437.0 L 2682738.0,1240437.0 L 2682738.0,1240462.0 L 2682763.0,1240462.0 L 2682788.0,1240462.0 L 2682788.0,1240512.0 L 2682813.0,1240512.0 L 2682813.0,1240562.0 L 2682838.0,1240562.0 L 2682838.0,1240637.0 L 2682863.0,1240637.0 L 2682863.0,1240687.0 L 2682888.0,1240687.0 L 2682888.0,1240737.0 L 2682913.0,1240737.0 L 2682938.0,1240737.0 L 2682938.0,1240762.0 L 2682963.0,1240762.0 L 2682988.0,1240762.0 L 2682988.0,1240787.0 L 2683013.0,1240787.0 L 2683013.0,1240812.0 L 2683038.0,1240812.0 L 2683038.0,1240837.0 L 2683013.0,1240837.0 L 2683013.0,1240912.0 L 2683038.0,1240912.0 L 2683038.0,1240962.0 L 2683063.0,1240962.0 L 2683063.0,1241012.0 L 2683088.0,1241012.0 L 2683088.0,1241037.0 L 2683113.0,1241037.0 L 2683113.0,1241087.0 L 2683138.0,1241087.0 L 2683138.0,1241112.0 L 2683163.0,1241112.0 L 2683163.0,1241137.0 L 2683188.0,1241137.0 L 2683188.0,1241262.0 L 2683213.0,1241262.0 L 2683238.0,1241262.0 L 2683238.0,1241312.0 L 2683263.0,1241312.0 L 2683263.0,1241362.0 L 2683313.0,1241362.0 L 2683338.0,1241362.0 L 2683338.0,1241412.0 L 2683363.0,1241412.0 L 2683363.0,1241462.0 L 2683413.0,1241462.0 L 2683413.0,1241387.0 L 2683438.0,1241387.0 L 2683438.0,1241362.0 L 2683463.0,1241362.0 L 2683463.0,1241337.0 L 2683513.0,1241337.0 L 2683513.0,1241312.0 L 2683588.0,1241312.0 L 2683588.0,1241262.0 L 2683638.0,1241262.0 L 2683638.0,1241212.0 L 2683688.0,1241212.0 L 2683688.0,1241237.0 L 2683713.0,1241237.0 L 2683713.0,1241212.0 L 2683738.0,1241212.0 L 2683738.0,1241187.0 L 2683813.0,1241187.0 L 2683813.0,1241137.0 L 2683838.0,1241137.0 L 2683838.0,1241087.0 L 2683888.0,1241087.0 L 2683888.0,1241012.0 L 2683913.0,1241012.0 L 2683913.0,1240912.0 L 2683938.0,1240912.0 L 2683938.0,1240837.0 L 2683963.0,1240837.0 L 2683963.0,1240812.0 L 2683938.0,1240812.0 L 2683938.0,1240762.0 L 2683963.0,1240762.0 L 2683963.0,1240737.0 L 2683938.0,1240737.0 L 2683913.0,1240737.0 L 2683913.0,1240687.0 L 2683888.0,1240687.0 L 2683888.0,1240662.0 L 2683863.0,1240662.0 L 2683863.0,1240612.0 L 2683838.0,1240612.0 L 2683838.0,1240537.0 L 2683813.0,1240537.0 L 2683813.0,1240437.0 L 2683838.0,1240437.0 L 2683838.0,1240412.0 L 2683813.0,1240412.0 L 2683813.0,1240312.0 L 2683788.0,1240312.0 L 2683788.0,1240262.0 L 2683763.0,1240262.0 L 2683763.0,1240187.0 L 2683738.0,1240187.0 L 2683738.0,1240137.0 L 2683763.0,1240137.0 L 2683763.0,1240087.0 L 2683788.0,1240087.0 L 2683788.0,1240062.0 L 2683813.0,1240062.0 L 2683813.0,1240037.0 L 2683838.0,1240037.0 L 2683838.0,1239987.0 L 2683863.0,1239987.0 L 2683863.0,1239962.0 L 2683913.0,1239962.0 L 2683913.0,1239937.0 L 2683963.0,1239937.0 L 2683963.0,1239812.0 L 2683988.0,1239812.0 L 2683988.0,1239787.0 L 2684013.0,1239787.0 L 2684013.0,1239762.0 L 2684038.0,1239762.0 L 2684038.0,1239712.0 L 2684063.0,1239712.0 L 2684063.0,1239637.0 L 2684113.0,1239637.0 L 2684113.0,1239612.0 L 2684088.0,1239612.0 L 2684088.0,1239562.0 L 2684113.0,1239562.0 L 2684113.0,1239462.0 L 2684138.0,1239462.0 L 2684138.0,1239387.0 L 2684163.0,1239387.0 L 2684163.0,1239362.0 L 2684188.0,1239362.0 L 2684188.0,1239237.0 L 2684213.0,1239237.0 L 2684213.0,1239137.0 L 2684238.0,1239137.0 L 2684238.0,1238962.0 L 2684263.0,1238962.0 L 2684263.0,1238937.0 L 2684288.0,1238937.0 L 2684288.0,1238887.0 L 2684313.0,1238887.0 L 2684313.0,1238837.0 L 2684338.0,1238837.0 L 2684338.0,1238812.0 L 2684363.0,1238812.0 L 2684363.0,1238762.0 L 2684388.0,1238762.0 L 2684388.0,1238712.0 L 2684413.0,1238712.0 L 2684413.0,1238412.0 L 2684438.0,1238412.0 L 2684438.0,1238362.0 L 2684463.0,1238362.0 L 2684463.0,1238337.0 L 2684488.0,1238337.0 L 2684488.0,1238287.0 L 2684538.0,1238287.0 L 2684538.0,1238237.0 L 2684563.0,1238237.0 L 2684563.0,1238212.0 L 2684588.0,1238212.0 L 2684588.0,1238187.0 L 2684613.0,1238187.0 L 2684613.0,1238162.0 L 2684638.0,1238162.0 L 2684638.0,1238137.0 L 2684663.0,1238137.0 L 2684663.0,1238062.0 L 2684688.0,1238062.0 L 2684688.0,1238037.0 L 2684713.0,1238037.0 L 2684713.0,1237987.0 L 2684738.0,1237987.0 L 2684738.0,1237962.0 L 2684763.0,1237962.0 L 2684763.0,1237937.0 L 2684788.0,1237937.0 L 2684788.0,1237912.0 L 2684813.0,1237912.0 L 2684813.0,1237862.0 L 2684838.0,1237862.0 L 2684838.0,1237837.0 L 2684913.0,1237837.0 L 2684913.0,1237812.0 L 2685063.0,1237812.0 L 2685063.0,1237787.0 L 2685138.0,1237787.0 L 2685138.0,1237762.0 L 2685238.0,1237762.0 L 2685238.0,1237737.0 L 2685263.0,1237737.0 L 2685263.0,1237712.0 L 2685363.0,1237712.0 L 2685363.0,1237687.0 L 2685413.0,1237687.0 L 2685413.0,1237662.0 L 2685463.0,1237662.0 L 2685463.0,1237637.0 L 2685538.0,1237637.0 L 2685538.0,1237612.0 L 2685588.0,1237612.0 L 2685588.0,1237587.0 L 2685613.0,1237587.0 L 2685613.0,1237562.0 L 2685663.0,1237562.0 L 2685663.0,1237537.0 L 2685713.0,1237537.0 L 2685713.0,1237512.0 L 2685738.0,1237512.0 L 2685738.0,1237462.0 L 2685763.0,1237462.0 L 2685763.0,1237412.0 L 2685738.0,1237412.0 L 2685738.0,1237362.0 L 2685763.0,1237362.0 L 2685763.0,1237312.0 L 2685738.0,1237312.0 L 2685738.0,1237287.0 L 2685763.0,1237287.0 L 2685763.0,1237237.0 L 2685788.0,1237237.0 L 2685788.0,1237187.0 L 2685763.0,1237187.0 L 2685763.0,1237162.0 L 2685788.0,1237162.0 L 2685788.0,1237062.0 L 2685813.0,1237062.0 L 2685813.0,1236962.0 L 2685838.0,1236962.0 L 2685838.0,1236812.0 L 2685863.0,1236812.0 L 2685863.0,1236762.0 L 2685888.0,1236762.0 L 2685888.0,1236712.0 L 2685913.0,1236712.0 L 2685913.0,1236687.0 L 2685938.0,1236687.0 L 2685938.0,1236637.0 L 2685963.0,1236637.0 L 2685963.0,1236612.0 L 2685988.0,1236612.0 L 2685988.0,1236587.0 L 2686013.0,1236587.0 L 2686013.0,1236562.0 L 2686038.0,1236562.0 L 2686038.0,1236537.0 L 2686063.0,1236537.0 L 2686063.0,1236487.0 L 2686088.0,1236487.0 L 2686088.0,1236437.0 L 2686113.0,1236437.0 L 2686113.0,1236412.0 L 2686138.0,1236412.0 L 2686138.0,1236387.0 L 2686188.0,1236387.0 L 2686188.0,1236362.0 L 2686213.0,1236362.0 L 2686213.0,1236337.0 L 2686288.0,1236337.0 L 2686288.0,1236287.0 L 2686313.0,1236287.0 L 2686313.0,1236312.0 L 2686338.0,1236312.0 L 2686363.0,1236312.0 L 2686363.0,1236337.0 L 2686388.0,1236337.0 L 2686388.0,1236412.0 L 2686413.0,1236412.0 L 2686413.0,1236437.0 L 2686388.0,1236437.0 L 2686388.0,1236462.0 L 2686413.0,1236462.0 L 2686413.0,1236537.0 L 2686438.0,1236537.0 L 2686438.0,1236562.0 L 2686413.0,1236562.0 L 2686413.0,1236587.0 L 2686438.0,1236587.0 L 2686438.0,1236712.0 L 2686413.0,1236712.0 L 2686413.0,1236762.0 L 2686388.0,1236762.0 L 2686388.0,1236887.0 L 2686363.0,1236887.0 L 2686363.0,1236962.0 L 2686338.0,1236962.0 L 2686338.0,1236987.0 L 2686363.0,1236987.0 L 2686363.0,1237037.0 L 2686338.0,1237037.0 L 2686338.0,1237087.0 L 2686313.0,1237087.0 L 2686313.0,1237137.0 L 2686288.0,1237137.0 L 2686288.0,1237187.0 L 2686263.0,1237187.0 L 2686263.0,1237212.0 L 2686238.0,1237212.0 L 2686238.0,1237262.0 L 2686213.0,1237262.0 L 2686213.0,1237287.0 L 2686188.0,1237287.0 L 2686188.0,1237312.0 L 2686163.0,1237312.0 L 2686163.0,1237362.0 L 2686138.0,1237362.0 L 2686138.0,1237387.0 L 2686113.0,1237387.0 L 2686113.0,1237437.0 L 2686088.0,1237437.0 L 2686088.0,1237487.0 L 2686063.0,1237487.0 L 2686063.0,1237512.0 L 2686013.0,1237512.0 L 2686013.0,1237537.0 L 2685988.0,1237537.0 L 2685988.0,1237562.0 L 2685838.0,1237562.0 L 2685838.0,1237612.0 L 2685863.0,1237612.0 L 2685863.0,1237662.0 L 2685888.0,1237662.0 L 2685888.0,1237762.0 L 2685863.0,1237762.0 L 2685863.0,1237787.0 L 2685838.0,1237787.0 L 2685838.0,1238012.0 L 2685813.0,1238012.0 L 2685813.0,1238087.0 L 2685788.0,1238087.0 L 2685788.0,1238112.0 L 2685763.0,1238112.0 L 2685763.0,1238212.0 L 2685738.0,1238212.0 L 2685738.0,1238237.0 L 2685713.0,1238237.0 L 2685713.0,1238312.0 L 2685688.0,1238312.0 L 2685688.0,1238362.0 L 2685663.0,1238362.0 L 2685663.0,1238412.0 L 2685638.0,1238412.0 L 2685638.0,1238512.0 L 2685613.0,1238512.0 L 2685613.0,1238562.0 L 2685588.0,1238562.0 L 2685588.0,1238637.0 L 2685563.0,1238637.0 L 2685563.0,1238687.0 L 2685538.0,1238687.0 L 2685538.0,1238737.0 L 2685513.0,1238737.0 L 2685513.0,1238787.0 L 2685488.0,1238787.0 L 2685488.0,1238837.0 L 2685463.0,1238837.0 L 2685463.0,1238862.0 L 2685438.0,1238862.0 L 2685438.0,1238912.0 L 2685413.0,1238912.0 L 2685413.0,1238962.0 L 2685388.0,1238962.0 L 2685388.0,1239012.0 L 2685363.0,1239012.0 L 2685363.0,1239037.0 L 2685338.0,1239037.0 L 2685338.0,1239087.0 L 2685313.0,1239087.0 L 2685313.0,1239112.0 L 2685288.0,1239112.0 L 2685288.0,1239137.0 L 2685263.0,1239137.0 L 2685263.0,1239187.0 L 2685238.0,1239187.0 L 2685238.0,1239237.0 L 2685213.0,1239237.0 L 2685213.0,1239262.0 L 2685188.0,1239262.0 L 2685188.0,1239287.0 L 2685163.0,1239287.0 L 2685163.0,1239312.0 L 2685138.0,1239312.0 L 2685138.0,1239337.0 L 2685088.0,1239337.0 L 2685088.0,1239387.0 L 2685038.0,1239387.0 L 2685038.0,1239412.0 L 2685013.0,1239412.0 L 2685013.0,1239437.0 L 2684988.0,1239437.0 L 2684988.0,1239462.0 L 2684938.0,1239462.0 L 2684938.0,1239487.0 L 2684913.0,1239487.0 L 2684913.0,1239512.0 L 2684888.0,1239512.0 L 2684888.0,1239537.0 L 2684863.0,1239537.0 L 2684863.0,1239562.0 L 2684813.0,1239562.0 L 2684813.0,1239612.0 L 2684763.0,1239612.0 L 2684763.0,1239637.0 L 2684738.0,1239637.0 L 2684738.0,1239662.0 L 2684713.0,1239662.0 L 2684713.0,1239687.0 L 2684688.0,1239687.0 L 2684688.0,1239737.0 L 2684663.0,1239737.0 L 2684663.0,1239762.0 L 2684638.0,1239762.0 L 2684638.0,1239812.0 L 2684613.0,1239812.0 L 2684613.0,1239862.0 L 2684563.0,1239862.0 L 2684563.0,1239887.0 L 2684538.0,1239887.0 L 2684538.0,1240087.0 L 2684513.0,1240087.0 L 2684513.0,1240237.0 L 2684488.0,1240237.0 L 2684488.0,1240512.0 L 2684463.0,1240512.0 L 2684463.0,1240587.0 L 2684438.0,1240587.0 L 2684438.0,1240612.0 L 2684413.0,1240612.0 L 2684413.0,1240662.0 L 2684438.0,1240662.0 L 2684438.0,1240687.0 L 2684413.0,1240687.0 L 2684413.0,1240762.0 L 2684388.0,1240762.0 L 2684388.0,1240887.0 L 2684363.0,1240887.0 L 2684363.0,1240937.0 L 2684338.0,1240937.0 L 2684338.0,1241037.0 L 2684313.0,1241037.0 L 2684313.0,1241087.0 L 2684288.0,1241087.0 L 2684288.0,1241137.0 L 2684263.0,1241137.0 L 2684263.0,1241212.0 L 2684238.0,1241212.0 L 2684238.0,1241237.0 L 2684213.0,1241237.0 L 2684213.0,1241262.0 L 2684188.0,1241262.0 L 2684188.0,1241287.0 L 2684213.0,1241287.0 L 2684213.0,1241312.0 L 2684188.0,1241312.0 L 2684188.0,1241387.0 L 2684163.0,1241387.0 L 2684163.0,1241487.0 L 2684138.0,1241487.0 L 2684138.0,1241537.0 L 2684113.0,1241537.0 L 2684113.0,1241612.0 L 2684088.0,1241612.0 L 2684088.0,1241687.0 L 2684063.0,1241687.0 L 2684063.0,1241737.0 L 2684038.0,1241737.0 L 2684038.0,1241762.0 L 2684013.0,1241762.0 L 2684013.0,1241787.0 L 2683988.0,1241787.0 L 2683988.0,1241837.0 L 2683963.0,1241837.0 L 2683963.0,1241862.0 L 2683913.0,1241862.0 L 2683913.0,1241937.0 L 2683888.0,1241937.0 L 2683888.0,1241962.0 L 2683863.0,1241962.0 L 2683863.0,1242012.0 L 2683838.0,1242012.0 L 2683838.0,1242037.0 L 2683813.0,1242037.0 L 2683813.0,1242112.0 L 2683788.0,1242112.0 L 2683788.0,1242187.0 L 2683763.0,1242187.0 L 2683763.0,1242212.0 L 2683738.0,1242212.0 L 2683738.0,1242262.0 L 2683688.0,1242262.0 L 2683688.0,1242287.0 L 2683663.0,1242287.0 L 2683663.0,1242312.0 L 2683613.0,1242312.0 L 2683613.0,1242337.0 L 2683588.0,1242337.0 L 2683588.0,1242387.0 L 2683563.0,1242387.0 L 2683563.0,1242437.0 L 2683538.0,1242437.0 L 2683538.0,1242462.0 L 2683563.0,1242462.0 L 2683563.0,1242562.0 L 2683538.0,1242562.0 L 2683538.0,1242637.0 L 2683513.0,1242637.0 L 2683513.0,1242687.0 L 2683488.0,1242687.0 L 2683488.0,1242712.0 L 2683438.0,1242712.0 L 2683438.0,1242762.0 L 2683413.0,1242762.0 L 2683413.0,1242837.0 L 2683388.0,1242837.0 L 2683388.0,1242887.0 L 2683363.0,1242887.0 L 2683363.0,1242912.0 L 2683338.0,1242912.0 L 2683338.0,1242937.0 L 2683313.0,1242937.0 L 2683313.0,1242962.0 L 2683288.0,1242962.0 L 2683288.0,1242987.0 L 2683263.0,1242987.0 L 2683263.0,1243037.0 L 2683238.0,1243037.0 L 2683238.0,1243062.0 L 2683213.0,1243062.0 L 2683213.0,1243087.0 L 2683188.0,1243087.0 L 2683188.0,1243112.0 L 2683213.0,1243112.0 L 2683213.0,1243137.0 L 2683188.0,1243137.0 L 2683188.0,1243187.0 L 2683163.0,1243187.0 L 2683163.0,1243237.0 L 2683088.0,1243237.0 L 2683088.0,1243262.0 L 2683063.0,1243262.0 L 2683063.0,1243312.0 L 2683038.0,1243312.0 L 2683038.0,1243362.0 L 2683013.0,1243362.0 L 2683013.0,1243387.0 L 2682988.0,1243387.0 L 2682988.0,1243462.0 L 2682963.0,1243462.0 L 2682963.0,1243637.0 L 2682938.0,1243637.0 L 2682938.0,1243837.0 L 2682963.0,1243837.0 L 2682963.0,1243962.0 L 2682938.0,1243962.0 L 2682938.0,1244212.0 L 2682963.0,1244212.0 L 2682963.0,1244437.0 L 2682938.0,1244437.0 L 2682938.0,1244512.0 L 2682913.0,1244512.0 L 2682913.0,1244637.0 L 2682888.0,1244637.0 L 2682888.0,1244687.0 L 2682863.0,1244687.0 L 2682863.0,1244737.0 L 2682838.0,1244737.0 L 2682838.0,1244762.0 L 2682813.0,1244762.0 L 2682813.0,1244812.0 L 2682788.0,1244812.0 L 2682788.0,1244862.0 L 2682763.0,1244862.0 L 2682763.0,1244912.0 L 2682738.0,1244912.0 L 2682738.0,1245062.0 L 2682713.0,1245062.0 L 2682713.0,1245212.0 L 2682688.0,1245212.0 L 2682688.0,1245262.0 L 2682663.0,1245262.0 L 2682663.0,1245312.0 L 2682688.0,1245312.0 L 2682688.0,1245337.0 L 2682663.0,1245337.0 L 2682663.0,1245362.0 L 2682688.0,1245362.0 L 2682688.0,1245587.0 L 2682713.0,1245587.0 L 2682713.0,1245662.0 L 2682738.0,1245662.0 L 2682738.0,1245712.0 L 2682763.0,1245712.0 L 2682763.0,1245762.0 L 2682788.0,1245762.0 L 2682788.0,1245837.0 L 2682813.0,1245837.0 L 2682813.0,1245912.0 L 2682838.0,1245912.0 L 2682838.0,1245962.0 L 2682863.0,1245962.0 L 2682863.0,1246012.0 L 2682888.0,1246012.0 L 2682888.0,1246037.0 L 2682913.0,1246037.0 L 2682913.0,1246062.0 L 2682938.0,1246062.0 L 2682938.0,1246112.0 L 2682963.0,1246112.0 L 2682963.0,1246137.0 L 2682988.0,1246137.0 L 2682988.0,1246162.0 L 2683013.0,1246162.0 L 2683013.0,1246212.0 L 2683038.0,1246212.0 L 2683038.0,1246262.0 L 2683063.0,1246262.0 L 2683063.0,1246312.0 L 2683088.0,1246312.0 L 2683088.0,1246362.0 L 2683113.0,1246362.0 L 2683113.0,1246387.0 L 2683138.0,1246387.0 L 2683138.0,1246437.0 L 2683163.0,1246437.0 L 2683188.0,1246437.0 L 2683188.0,1246462.0 L 2683238.0,1246462.0 L 2683263.0,1246462.0 L 2683263.0,1246487.0 L 2683363.0,1246487.0 L 2683363.0,1246462.0 L 2683413.0,1246462.0 L 2683413.0,1246437.0 L 2683463.0,1246437.0 L 2683463.0,1246412.0 L 2683513.0,1246412.0 L 2683513.0,1246387.0 L 2683538.0,1246387.0 L 2683538.0,1246337.0 L 2683563.0,1246337.0 L 2683563.0,1246312.0 L 2683588.0,1246312.0 L 2683588.0,1246262.0 L 2683613.0,1246262.0 L 2683613.0,1246212.0 L 2683638.0,1246212.0 L 2683638.0,1246137.0 L 2683663.0,1246137.0 L 2683663.0,1246112.0 L 2683688.0,1246112.0 L 2683688.0,1246062.0 L 2683713.0,1246062.0 L 2683713.0,1246012.0 L 2683738.0,1246012.0 L 2683738.0,1245962.0 L 2683763.0,1245962.0 L 2683763.0,1245912.0 L 2683788.0,1245912.0 L 2683788.0,1245862.0 L 2683813.0,1245862.0 L 2683813.0,1245812.0 L 2683838.0,1245812.0 L 2683838.0,1245762.0 L 2683863.0,1245762.0 L 2683863.0,1245712.0 L 2683888.0,1245712.0 L 2683888.0,1245637.0 L 2683913.0,1245637.0 L 2683913.0,1245612.0 L 2683938.0,1245612.0 L 2683938.0,1245587.0 L 2683963.0,1245587.0 L 2683963.0,1245537.0 L 2683988.0,1245537.0 L 2683988.0,1245512.0 L 2684013.0,1245512.0 L 2684013.0,1245487.0 L 2684038.0,1245487.0 L 2684038.0,1245462.0 L 2684063.0,1245462.0 L 2684063.0,1245437.0 L 2684088.0,1245437.0 L 2684088.0,1245412.0 L 2684113.0,1245412.0 L 2684113.0,1245387.0 L 2684138.0,1245387.0 L 2684138.0,1245362.0 L 2684163.0,1245362.0 L 2684163.0,1245337.0 L 2684188.0,1245337.0 L 2684188.0,1245312.0 L 2684238.0,1245312.0 L 2684238.0,1245287.0 L 2684263.0,1245287.0 L 2684263.0,1245262.0 L 2684313.0,1245262.0 L 2684313.0,1245237.0 L 2684363.0,1245237.0 L 2684363.0,1245212.0 L 2684388.0,1245212.0 L 2684388.0,1245187.0 L 2684438.0,1245187.0 L 2684438.0,1245162.0 L 2684488.0,1245162.0 L 2684488.0,1245137.0 L 2684563.0,1245137.0 L 2684563.0,1245112.0 L 2684613.0,1245112.0 L 2684613.0,1245087.0 L 2684638.0,1245087.0 L 2684638.0,1245062.0 L 2684688.0,1245062.0 L 2684688.0,1245037.0 L 2684738.0,1245037.0 L 2684738.0,1245012.0 L 2684763.0,1245012.0 L 2684763.0,1244987.0 L 2684788.0,1244987.0 L 2684788.0,1244962.0 L 2684838.0,1244962.0 L 2684838.0,1244937.0 L 2684888.0,1244937.0 L 2684888.0,1244887.0 L 2684913.0,1244887.0 L 2684913.0,1244862.0 L 2684938.0,1244862.0 L 2684938.0,1244837.0 L 2684963.0,1244837.0 L 2684963.0,1244812.0 L 2684988.0,1244812.0 L 2684988.0,1244762.0 L 2685013.0,1244762.0 L 2685013.0,1244712.0 L 2685038.0,1244712.0 L 2685038.0,1244662.0 L 2685063.0,1244662.0 L 2685063.0,1244637.0 L 2685088.0,1244637.0 L 2685088.0,1244587.0 L 2685113.0,1244587.0 L 2685113.0,1244537.0 L 2685138.0,1244537.0 L 2685138.0,1244487.0 L 2685163.0,1244487.0 L 2685163.0,1244462.0 L 2685188.0,1244462.0 L 2685188.0,1244437.0 L 2685213.0,1244437.0 L 2685213.0,1244412.0 L 2685238.0,1244412.0 L 2685238.0,1244362.0 L 2685263.0,1244362.0 L 2685263.0,1244337.0 L 2685288.0,1244337.0 L 2685288.0,1244312.0 L 2685313.0,1244312.0 L 2685313.0,1244287.0 L 2685338.0,1244287.0 L 2685338.0,1244237.0 L 2685363.0,1244237.0 L 2685363.0,1244162.0 L 2685388.0,1244162.0 L 2685388.0,1244087.0 L 2685413.0,1244087.0 L 2685413.0,1243987.0 L 2685438.0,1243987.0 L 2685438.0,1243912.0 L 2685463.0,1243912.0 L 2685463.0,1243812.0 L 2685488.0,1243812.0 L 2685488.0,1243762.0 L 2685513.0,1243762.0 L 2685513.0,1243712.0 L 2685538.0,1243712.0 L 2685538.0,1243637.0 L 2685563.0,1243637.0 L 2685563.0,1243512.0 L 2685588.0,1243512.0 L 2685588.0,1243462.0 L 2685613.0,1243462.0 L 2685613.0,1243437.0 L 2685638.0,1243437.0 L 2685638.0,1243387.0 L 2685663.0,1243387.0 L 2685663.0,1243362.0 L 2685688.0,1243362.0 L 2685688.0,1243337.0 L 2685713.0,1243337.0 L 2685713.0,1243312.0 L 2685738.0,1243312.0 L 2685738.0,1243262.0 L 2685763.0,1243262.0 L 2685763.0,1243237.0 L 2685788.0,1243237.0 L 2685788.0,1243212.0 L 2685813.0,1243212.0 L 2685813.0,1243187.0 L 2685863.0,1243187.0 L 2685863.0,1243162.0 L 2685888.0,1243162.0 L 2685888.0,1243137.0 L 2685938.0,1243137.0 L 2685938.0,1243112.0 L 2685988.0,1243112.0 L 2685988.0,1243062.0 L 2686038.0,1243062.0 L 2686038.0,1243037.0 L 2686088.0,1243037.0 L 2686088.0,1243112.0 L 2686113.0,1243112.0 L 2686113.0,1243162.0 L 2686138.0,1243162.0 L 2686138.0,1243212.0 L 2686163.0,1243212.0 L 2686163.0,1243312.0 L 2686188.0,1243312.0 L 2686188.0,1243362.0 L 2686213.0,1243362.0 L 2686213.0,1243387.0 L 2686238.0,1243387.0 L 2686238.0,1243462.0 L 2686263.0,1243462.0 L 2686263.0,1243537.0 L 2686288.0,1243537.0 L 2686288.0,1243612.0 L 2686313.0,1243612.0 L 2686313.0,1243762.0 L 2686338.0,1243762.0 L 2686338.0,1244512.0 L 2686363.0,1244512.0 L 2686363.0,1244562.0 L 2686388.0,1244562.0 L 2686388.0,1244587.0 L 2686413.0,1244587.0 L 2686413.0,1244612.0 L 2686438.0,1244612.0 L 2686438.0,1244662.0 L 2686413.0,1244662.0 L 2686413.0,1244737.0 L 2686388.0,1244737.0 L 2686388.0,1244812.0 L 2686363.0,1244812.0 L 2686363.0,1244837.0 L 2686338.0,1244837.0 L 2686338.0,1244862.0 L 2686313.0,1244862.0 L 2686313.0,1244887.0 L 2686263.0,1244887.0 L 2686263.0,1244937.0 L 2686238.0,1244937.0 L 2686238.0,1245012.0 L 2686213.0,1245012.0 L 2686213.0,1245062.0 L 2686188.0,1245062.0 L 2686188.0,1245162.0 L 2686213.0,1245162.0 L 2686213.0,1245187.0 L 2686188.0,1245187.0 L 2686188.0,1245212.0 L 2686163.0,1245212.0 L 2686163.0,1245237.0 L 2686138.0,1245237.0 L 2686138.0,1245262.0 L 2686163.0,1245262.0 L 2686163.0,1245287.0 L 2686188.0,1245287.0 L 2686188.0,1245362.0 L 2686138.0,1245362.0 L 2686138.0,1245337.0 L 2686163.0,1245337.0 L 2686163.0,1245312.0 L 2686088.0,1245312.0 L 2686088.0,1245337.0 L 2686063.0,1245337.0 L 2686063.0,1245362.0 L 2686088.0,1245362.0 L 2686088.0,1245412.0 L 2686063.0,1245412.0 L 2686063.0,1245437.0 L 2686113.0,1245437.0 L 2686113.0,1245412.0 L 2686138.0,1245412.0 L 2686138.0,1245487.0 L 2686113.0,1245487.0 L 2686113.0,1245537.0 L 2686088.0,1245537.0 L 2686088.0,1245512.0 L 2686013.0,1245512.0 L 2686013.0,1245537.0 L 2685988.0,1245537.0 L 2685988.0,1245587.0 L 2685938.0,1245587.0 L 2685938.0,1245612.0 L 2685863.0,1245612.0 L 2685863.0,1245637.0 L 2685838.0,1245637.0 L 2685838.0,1245662.0 L 2685788.0,1245662.0 L 2685788.0,1245687.0 L 2685763.0,1245687.0 L 2685763.0,1245712.0 L 2685738.0,1245712.0 L 2685738.0,1245662.0 L 2685763.0,1245662.0 L 2685763.0,1245637.0 L 2685738.0,1245637.0 L 2685738.0,1245612.0 L 2685713.0,1245612.0 L 2685713.0,1245512.0 L 2685688.0,1245512.0 L 2685688.0,1245487.0 L 2685663.0,1245487.0 L 2685663.0,1245462.0 L 2685613.0,1245462.0 L 2685613.0,1245487.0 L 2685588.0,1245487.0 L 2685588.0,1245462.0 L 2685563.0,1245462.0 L 2685488.0,1245462.0 L 2685488.0,1245437.0 L 2685463.0,1245437.0 L 2685463.0,1245462.0 L 2685438.0,1245462.0 L 2685438.0,1245437.0 L 2685413.0,1245437.0 L 2685413.0,1245412.0 L 2685388.0,1245412.0 L 2685388.0,1245362.0 L 2685363.0,1245362.0 L 2685363.0,1245312.0 L 2685338.0,1245312.0 L 2685338.0,1245262.0 L 2685263.0,1245262.0 L 2685263.0,1245287.0 L 2685213.0,1245287.0 L 2685213.0,1245312.0 L 2685188.0,1245312.0 L 2685188.0,1245337.0 L 2685163.0,1245337.0 L 2685163.0,1245362.0 L 2685138.0,1245362.0 L 2685138.0,1245412.0 L 2685113.0,1245412.0 L 2685113.0,1245437.0 L 2685088.0,1245437.0 L 2685088.0,1245462.0 L 2685063.0,1245462.0 L 2685063.0,1245512.0 L 2685038.0,1245512.0 L 2685038.0,1245537.0 L 2685013.0,1245537.0 L 2685013.0,1245562.0 L 2684988.0,1245562.0 L 2684988.0,1245662.0 L 2685013.0,1245662.0 L 2685013.0,1245687.0 L 2685138.0,1245687.0 L 2685163.0,1245687.0 L 2685163.0,1245712.0 L 2685188.0,1245712.0 L 2685188.0,1245687.0 L 2685213.0,1245687.0 L 2685213.0,1245712.0 L 2685238.0,1245712.0 L 2685238.0,1245737.0 L 2685263.0,1245737.0 L 2685288.0,1245737.0 L 2685288.0,1245762.0 L 2685313.0,1245762.0 L 2685338.0,1245762.0 L 2685338.0,1245787.0 L 2685363.0,1245787.0 L 2685363.0,1245837.0 L 2685388.0,1245837.0 L 2685388.0,1245887.0 L 2685413.0,1245887.0 L 2685413.0,1245912.0 L 2685438.0,1245912.0 L 2685438.0,1245962.0 L 2685488.0,1245962.0 L 2685513.0,1245962.0 L 2685513.0,1245987.0 L 2685538.0,1245987.0 L 2685563.0,1245987.0 L 2685563.0,1246012.0 L 2685588.0,1246012.0 L 2685588.0,1246037.0 L 2685613.0,1246037.0 L 2685613.0,1246062.0 L 2685638.0,1246062.0 L 2685638.0,1246137.0 L 2685613.0,1246137.0 L 2685613.0,1246237.0 L 2685588.0,1246237.0 L 2685588.0,1246287.0 L 2685613.0,1246287.0 L 2685613.0,1246312.0 L 2685588.0,1246312.0 L 2685588.0,1246387.0 L 2685563.0,1246387.0 L 2685563.0,1246462.0 L 2685538.0,1246462.0 L 2685538.0,1246512.0 L 2685513.0,1246512.0 L 2685513.0,1246562.0 L 2685488.0,1246562.0 L 2685488.0,1246612.0 L 2685463.0,1246612.0 L 2685463.0,1246662.0 L 2685438.0,1246662.0 L 2685438.0,1246712.0 L 2685413.0,1246712.0 L 2685413.0,1246787.0 L 2685388.0,1246787.0 L 2685388.0,1246862.0 L 2685363.0,1246862.0 L 2685363.0,1246937.0 L 2685338.0,1246937.0 L 2685338.0,1247037.0 L 2685313.0,1247037.0 L 2685313.0,1247112.0 L 2685288.0,1247112.0 L 2685288.0,1247212.0 L 2685263.0,1247212.0 L 2685263.0,1247262.0 L 2685238.0,1247262.0 L 2685238.0,1247362.0 L 2685213.0,1247362.0 L 2685213.0,1247387.0 L 2685188.0,1247387.0 L 2685188.0,1247412.0 L 2685213.0,1247412.0 L 2685213.0,1247637.0 L 2685188.0,1247637.0 L 2685188.0,1247687.0 L 2685213.0,1247687.0 L 2685213.0,1247737.0 L 2685188.0,1247737.0 L 2685188.0,1247787.0 L 2685163.0,1247787.0 L 2685163.0,1247912.0 L 2685138.0,1247912.0 L 2685138.0,1247987.0 L 2685113.0,1247987.0 L 2685113.0,1248162.0 L 2685088.0,1248162.0 L 2685088.0,1248212.0 L 2685063.0,1248212.0 L 2685063.0,1248287.0 L 2685038.0,1248287.0 L 2685038.0,1248312.0 L 2685013.0,1248312.0 L 2685013.0,1248337.0 L 2684963.0,1248337.0 L 2684963.0,1248362.0 L 2684938.0,1248362.0 L 2684938.0,1248387.0 L 2684913.0,1248387.0 L 2684913.0,1248412.0 L 2684888.0,1248412.0 L 2684888.0,1248462.0 L 2684863.0,1248462.0 L 2684863.0,1248487.0 L 2684838.0,1248487.0 L 2684838.0,1248512.0 L 2684788.0,1248512.0 L 2684788.0,1248537.0 L 2684763.0,1248537.0 L 2684763.0,1248562.0 L 2684713.0,1248562.0 L 2684713.0,1248587.0 L 2684688.0,1248587.0 L 2684688.0,1248612.0 L 2684638.0,1248612.0 L 2684638.0,1248637.0 L 2684613.0,1248637.0 L 2684613.0,1248687.0 L 2684588.0,1248687.0 L 2684588.0,1248712.0 L 2684563.0,1248712.0 L 2684563.0,1248737.0 L 2684538.0,1248737.0 L 2684538.0,1248762.0 L 2684488.0,1248762.0 L 2684488.0,1248787.0 L 2684438.0,1248787.0 L 2684438.0,1248812.0 L 2684413.0,1248812.0 L 2684413.0,1248837.0 L 2684363.0,1248837.0 L 2684363.0,1248862.0 L 2684338.0,1248862.0 L 2684338.0,1248887.0 L 2684313.0,1248887.0 L 2684313.0,1248912.0 L 2684263.0,1248912.0 L 2684263.0,1248962.0 L 2684213.0,1248962.0 L 2684213.0,1249012.0 L 2684188.0,1249012.0 L 2684188.0,1249037.0 L 2684138.0,1249037.0 L 2684138.0,1249062.0 L 2684113.0,1249062.0 L 2684113.0,1249112.0 L 2684063.0,1249112.0 L 2684063.0,1249137.0 L 2684038.0,1249137.0 L 2684038.0,1249187.0 L 2684013.0,1249187.0 L 2684013.0,1249262.0 L 2683963.0,1249262.0 L 2683963.0,1249312.0 L 2683938.0,1249312.0 L 2683938.0,1249337.0 L 2683913.0,1249337.0 L 2683913.0,1249387.0 L 2683888.0,1249387.0 L 2683888.0,1249412.0 L 2683863.0,1249412.0 L 2683863.0,1249487.0 L 2683838.0,1249487.0 L 2683838.0,1249537.0 L 2683813.0,1249537.0 L 2683813.0,1249562.0 L 2683838.0,1249562.0 L 2683838.0,1249587.0 L 2683813.0,1249587.0 L 2683813.0,1249662.0 L 2683838.0,1249662.0 L 2683838.0,1249712.0 L 2683813.0,1249712.0 L 2683813.0,1249762.0 L 2683838.0,1249762.0 L 2683838.0,1249837.0 L 2683863.0,1249837.0 L 2683863.0,1250062.0 L 2683888.0,1250062.0 L 2683888.0,1250087.0 L 2683913.0,1250087.0 L 2683913.0,1250137.0 L 2683938.0,1250137.0 L 2683938.0,1250212.0 L 2683963.0,1250212.0 L 2683963.0,1250262.0 L 2683988.0,1250262.0 L 2684013.0,1250262.0 L 2684013.0,1250287.0 L 2684038.0,1250287.0 L 2684038.0,1250312.0 L 2684063.0,1250312.0 L 2684088.0,1250312.0 L 2684088.0,1250337.0 L 2684113.0,1250337.0 L 2684113.0,1250387.0 L 2684138.0,1250387.0 L 2684138.0,1250437.0 L 2684163.0,1250437.0 L 2684163.0,1250462.0 L 2684188.0,1250462.0 L 2684188.0,1250512.0 L 2684213.0,1250512.0 L 2684213.0,1250537.0 L 2684238.0,1250537.0 L 2684238.0,1250562.0 L 2684263.0,1250562.0 L 2684263.0,1250587.0 L 2684288.0,1250587.0 L 2684288.0,1250612.0 L 2684313.0,1250612.0 L 2684338.0,1250612.0 L 2684338.0,1250637.0 L 2684363.0,1250637.0 L 2684363.0,1250662.0 L 2684388.0,1250662.0 L 2684388.0,1250712.0 L 2684413.0,1250712.0 L 2684413.0,1250762.0 L 2684438.0,1250762.0 L 2684438.0,1250787.0 L 2684463.0,1250787.0 L 2684463.0,1250812.0 L 2684488.0,1250812.0 L 2684488.0,1250862.0 L 2684538.0,1250862.0 L 2684563.0,1250862.0 L 2684563.0,1250887.0 L 2684588.0,1250887.0 L 2684613.0,1250887.0 L 2684613.0,1250912.0 L 2684638.0,1250912.0 L 2684663.0,1250912.0 L 2684663.0,1250937.0 L 2684738.0,1250937.0 L 2684763.0,1250937.0 L 2684763.0,1250962.0 L 2684863.0,1250962.0 L 2684863.0,1250937.0 L 2685063.0,1250937.0 L 2685063.0,1250912.0 L 2685163.0,1250912.0 L 2685163.0,1250887.0 L 2685263.0,1250887.0 L 2685263.0,1250862.0 L 2685388.0,1250862.0 L 2685388.0,1250837.0 L 2685438.0,1250837.0 L 2685438.0,1250812.0 L 2685563.0,1250812.0 L 2685563.0,1250787.0 L 2686113.0,1250787.0 L 2686113.0,1250762.0 L 2686138.0,1250762.0 L 2686138.0,1250787.0 L 2686163.0,1250787.0 L 2686163.0,1250762.0 L 2686263.0,1250762.0 L 2686263.0,1250737.0 L 2686288.0,1250737.0 L 2686288.0,1250712.0 L 2686388.0,1250712.0 L 2686388.0,1250662.0 L 2686438.0,1250662.0 L 2686438.0,1250612.0 L 2686513.0,1250612.0 L 2686513.0,1250587.0 L 2686563.0,1250587.0 L 2686563.0,1250562.0 L 2686638.0,1250562.0 L 2686638.0,1250537.0 L 2686688.0,1250537.0 L 2686688.0,1250512.0 L 2686713.0,1250512.0 L 2686713.0,1250487.0 L 2686738.0,1250487.0 L 2686738.0,1250462.0 L 2686788.0,1250462.0 L 2686788.0,1250437.0 L 2686838.0,1250437.0 L 2686838.0,1250412.0 L 2686863.0,1250412.0 L 2686863.0,1250387.0 L 2686913.0,1250387.0 L 2686913.0,1250362.0 L 2686938.0,1250362.0 L 2686938.0,1250337.0 L 2687038.0,1250337.0 L 2687038.0,1250312.0 L 2687063.0,1250312.0 L 2687063.0,1250262.0 L 2687088.0,1250262.0 L 2687088.0,1250237.0 L 2687113.0,1250237.0 L 2687113.0,1250212.0 L 2687163.0,1250212.0 L 2687163.0,1250187.0 L 2687188.0,1250187.0 L 2687188.0,1250162.0 L 2687338.0,1250162.0 L 2687338.0,1250137.0 L 2687363.0,1250137.0 L 2687363.0,1250112.0 L 2687388.0,1250112.0 L 2687388.0,1250087.0 L 2687413.0,1250087.0 L 2687413.0,1250062.0 L 2687438.0,1250062.0 L 2687438.0,1250037.0 L 2687463.0,1250037.0 L 2687463.0,1249987.0 L 2687513.0,1249987.0 L 2687513.0,1249962.0 L 2687588.0,1249962.0 L 2687588.0,1249937.0 L 2687738.0,1249937.0 L 2687738.0,1249912.0 L 2687813.0,1249912.0 L 2687813.0,1249887.0 L 2687863.0,1249887.0 L 2687863.0,1249862.0 L 2688238.0,1249862.0 L 2688238.0,1249837.0 L 2688363.0,1249837.0 L 2688363.0,1249862.0 L 2688388.0,1249862.0 L 2688388.0,1249837.0 L 2688438.0,1249837.0 L 2688438.0,1249862.0 L 2688463.0,1249862.0 L 2688463.0,1249837.0 L 2688488.0,1249837.0 L 2688488.0,1249787.0 L 2688538.0,1249787.0 L 2688538.0,1249762.0 L 2688563.0,1249762.0 L 2688563.0,1249737.0 L 2688588.0,1249737.0 L 2688588.0,1249687.0 L 2688638.0,1249687.0 L 2688638.0,1249662.0 L 2688663.0,1249662.0 L 2688663.0,1249637.0 L 2688713.0,1249637.0 L 2688713.0,1249612.0 L 2688788.0,1249612.0 L 2688788.0,1249587.0 L 2688813.0,1249587.0 L 2688813.0,1249562.0 L 2688913.0,1249562.0 L 2688913.0,1249537.0 L 2689013.0,1249537.0 L 2689013.0,1249512.0 L 2689063.0,1249512.0 L 2689063.0,1249487.0 L 2689213.0,1249487.0 L 2689213.0,1249512.0 L 2689263.0,1249512.0 L 2689263.0,1249487.0 L 2689288.0,1249487.0 L 2689288.0,1249512.0 L 2689338.0,1249512.0 L 2689338.0,1249487.0 L 2689363.0,1249487.0 L 2689363.0,1249512.0 L 2689388.0,1249512.0 L 2689388.0,1249537.0 L 2689438.0,1249537.0 L 2689463.0,1249537.0 L 2689463.0,1249562.0 L 2689488.0,1249562.0 L 2689488.0,1249587.0 L 2689513.0,1249587.0 L 2689513.0,1249637.0 L 2689538.0,1249637.0 L 2689538.0,1249662.0 L 2689563.0,1249662.0 L 2689563.0,1249687.0 L 2689588.0,1249687.0 L 2689588.0,1249712.0 L 2689613.0,1249712.0 L 2689638.0,1249712.0 L 2689638.0,1249737.0 L 2689813.0,1249737.0 L 2689813.0,1249712.0 L 2689863.0,1249712.0 L 2689863.0,1249737.0 L 2689913.0,1249737.0 L 2689938.0,1249737.0 L 2689938.0,1249762.0 L 2690163.0,1249762.0 L 2690188.0,1249762.0 L 2690188.0,1249787.0 L 2690238.0,1249787.0 L 2690263.0,1249787.0 L 2690263.0,1249812.0 L 2690338.0,1249812.0 L 2690363.0,1249812.0 L 2690363.0,1249837.0 L 2690388.0,1249837.0 L 2690413.0,1249837.0 L 2690413.0,1249862.0 L 2690438.0,1249862.0 L 2690438.0,1249887.0 L 2690463.0,1249887.0 L 2690463.0,1249937.0 L 2690488.0,1249937.0 L 2690488.0,1250187.0 L 2690513.0,1250187.0 L 2690513.0,1250337.0 L 2690463.0,1250337.0 L 2690463.0,1250362.0 L 2690438.0,1250362.0 L 2690438.0,1250387.0 L 2690413.0,1250387.0 L 2690413.0,1250437.0 L 2690388.0,1250437.0 L 2690388.0,1250462.0 L 2690363.0,1250462.0 L 2690363.0,1250487.0 L 2690313.0,1250487.0 L 2690313.0,1250512.0 L 2690263.0,1250512.0 L 2690263.0,1250537.0 L 2690238.0,1250537.0 L 2690238.0,1250562.0 L 2690213.0,1250562.0 L 2690213.0,1250587.0 L 2690188.0,1250587.0 L 2690188.0,1250612.0 L 2690163.0,1250612.0 L 2690163.0,1250712.0 L 2690138.0,1250712.0 L 2690138.0,1250787.0 L 2690113.0,1250787.0 L 2690113.0,1250837.0 L 2690088.0,1250837.0 L 2690088.0,1250937.0 L 2690063.0,1250937.0 L 2690063.0,1251037.0 L 2690038.0,1251037.0 L 2690038.0,1251112.0 L 2690013.0,1251112.0 L 2690013.0,1251137.0 L 2689938.0,1251137.0 L 2689938.0,1251162.0 L 2689913.0,1251162.0 L 2689913.0,1251187.0 L 2689863.0,1251187.0 L 2689863.0,1251212.0 L 2689838.0,1251212.0 L 2689838.0,1251237.0 L 2689713.0,1251237.0 L 2689713.0,1251262.0 L 2689588.0,1251262.0 L 2689588.0,1251237.0 L 2689563.0,1251237.0 L 2689538.0,1251237.0 L 2689538.0,1251212.0 L 2689513.0,1251212.0 L 2689438.0,1251212.0 L 2689438.0,1251187.0 L 2689413.0,1251187.0 L 2689388.0,1251187.0 L 2689388.0,1251162.0 L 2689363.0,1251162.0 L 2689313.0,1251162.0 L 2689313.0,1251137.0 L 2689188.0,1251137.0 L 2689188.0,1251162.0 L 2689038.0,1251162.0 L 2689038.0,1251187.0 L 2689013.0,1251187.0 L 2689013.0,1251212.0 L 2688938.0,1251212.0 L 2688938.0,1251237.0 L 2688913.0,1251237.0 L 2688913.0,1251287.0 L 2688888.0,1251287.0 L 2688888.0,1251312.0 L 2688913.0,1251312.0 L 2688913.0,1251337.0 L 2688888.0,1251337.0 L 2688888.0,1251387.0 L 2688913.0,1251387.0 L 2688913.0,1251412.0 L 2688888.0,1251412.0 L 2688888.0,1251437.0 L 2688863.0,1251437.0 L 2688863.0,1251412.0 L 2688788.0,1251412.0 L 2688788.0,1251462.0 L 2688813.0,1251462.0 L 2688838.0,1251462.0 L 2688838.0,1251487.0 L 2688863.0,1251487.0 L 2688863.0,1251462.0 L 2688888.0,1251462.0 L 2688888.0,1251487.0 L 2688913.0,1251487.0 L 2688913.0,1251462.0 L 2688938.0,1251462.0 L 2688938.0,1251487.0 L 2688963.0,1251487.0 L 2688988.0,1251487.0 L 2688988.0,1251512.0 L 2689013.0,1251512.0 L 2689038.0,1251512.0 L 2689038.0,1251537.0 L 2689063.0,1251537.0 L 2689063.0,1251562.0 L 2689088.0,1251562.0 L 2689088.0,1251587.0 L 2689113.0,1251587.0 L 2689138.0,1251587.0 L 2689138.0,1251612.0 L 2689188.0,1251612.0 L 2689213.0,1251612.0 L 2689213.0,1251637.0 L 2689238.0,1251637.0 L 2689263.0,1251637.0 L 2689263.0,1251662.0 L 2689338.0,1251662.0 L 2689363.0,1251662.0 L 2689363.0,1251687.0 L 2689388.0,1251687.0 L 2689388.0,1251712.0 L 2689413.0,1251712.0 L 2689438.0,1251712.0 L 2689438.0,1251737.0 L 2689463.0,1251737.0 L 2689463.0,1251762.0 L 2689488.0,1251762.0 L 2689488.0,1251787.0 L 2689513.0,1251787.0 L 2689513.0,1251812.0 L 2689538.0,1251812.0 L 2689538.0,1251837.0 L 2689563.0,1251837.0 L 2689563.0,1251862.0 L 2689588.0,1251862.0 L 2689588.0,1251887.0 L 2689613.0,1251887.0 L 2689613.0,1251912.0 L 2689638.0,1251912.0 L 2689663.0,1251912.0 L 2689663.0,1251937.0 L 2689688.0,1251937.0 L 2689688.0,1251962.0 L 2689713.0,1251962.0 L 2689713.0,1251987.0 L 2689738.0,1251987.0 L 2689763.0,1251987.0 L 2689763.0,1252012.0 L 2689838.0,1252012.0 L 2689863.0,1252012.0 L 2689863.0,1252037.0 L 2689913.0,1252037.0 L 2689938.0,1252037.0 L 2689938.0,1252062.0 L 2689963.0,1252062.0 L 2689963.0,1252087.0 L 2689988.0,1252087.0 L 2689988.0,1252112.0 L 2690013.0,1252112.0 L 2690013.0,1252162.0 L 2690038.0,1252162.0 L 2690038.0,1252212.0 L 2690063.0,1252212.0 L 2690063.0,1252312.0 L 2690088.0,1252312.0 L 2690088.0,1252387.0 L 2690113.0,1252387.0 L 2690113.0,1252462.0 L 2690138.0,1252462.0 L 2690138.0,1252487.0 L 2690163.0,1252487.0 L 2690163.0,1252512.0 L 2690188.0,1252512.0 L 2690188.0,1252537.0 L 2690163.0,1252537.0 L 2690163.0,1252562.0 L 2690188.0,1252562.0 L 2690188.0,1252587.0 L 2690163.0,1252587.0 L 2690163.0,1252737.0 L 2690188.0,1252737.0 L 2690188.0,1252787.0 L 2690213.0,1252787.0 L 2690213.0,1252812.0 L 2690238.0,1252812.0 L 2690238.0,1252862.0 L 2690263.0,1252862.0 L 2690263.0,1252912.0 L 2690288.0,1252912.0 L 2690288.0,1252987.0 L 2690263.0,1252987.0 L 2690263.0,1253062.0 L 2690288.0,1253062.0 L 2690288.0,1253087.0 L 2690263.0,1253087.0 L 2690263.0,1253212.0 L 2690238.0,1253212.0 L 2690238.0,1253262.0 L 2690213.0,1253262.0 L 2690213.0,1253287.0 L 2690163.0,1253287.0 L 2690163.0,1253312.0 L 2690138.0,1253312.0 L 2690138.0,1253337.0 L 2690113.0,1253337.0 L 2690113.0,1253362.0 L 2689963.0,1253362.0 L 2689963.0,1253387.0 L 2689938.0,1253387.0 L 2689938.0,1253362.0 L 2689913.0,1253362.0 L 2689888.0,1253362.0 L 2689888.0,1253337.0 L 2689738.0,1253337.0 L 2689738.0,1253362.0 L 2689663.0,1253362.0 L 2689663.0,1253387.0 L 2689588.0,1253387.0 L 2689588.0,1253412.0 L 2689513.0,1253412.0 L 2689513.0,1253437.0 L 2689388.0,1253437.0 L 2689388.0,1253462.0 L 2689313.0,1253462.0 L 2689313.0,1253487.0 L 2689288.0,1253487.0 L 2689288.0,1253512.0 L 2689263.0,1253512.0 L 2689263.0,1253537.0 L 2689238.0,1253537.0 L 2689238.0,1253562.0 L 2689038.0,1253562.0 L 2689038.0,1253587.0 L 2689013.0,1253587.0 L 2689013.0,1253562.0 L 2688988.0,1253562.0 L 2688988.0,1253587.0 L 2688863.0,1253587.0 L 2688863.0,1253512.0 L 2688838.0,1253512.0 L 2688838.0,1253487.0 L 2688813.0,1253487.0 L 2688813.0,1253462.0 L 2688788.0,1253462.0 L 2688788.0,1253437.0 L 2688763.0,1253437.0 L 2688763.0,1253412.0 L 2688738.0,1253412.0 L 2688738.0,1253387.0 L 2688713.0,1253387.0 L 2688713.0,1253337.0 L 2688688.0,1253337.0 L 2688688.0,1253212.0 L 2688663.0,1253212.0 L 2688663.0,1252987.0 L 2688688.0,1252987.0 L 2688688.0,1252912.0 L 2688713.0,1252912.0 L 2688713.0,1252887.0 L 2688738.0,1252887.0 L 2688738.0,1252837.0 L 2688763.0,1252837.0 L 2688763.0,1252662.0 L 2688788.0,1252662.0 L 2688788.0,1252562.0 L 2688763.0,1252562.0 L 2688763.0,1252512.0 L 2688738.0,1252512.0 L 2688738.0,1252487.0 L 2688713.0,1252487.0 L 2688713.0,1252462.0 L 2688688.0,1252462.0 L 2688688.0,1252437.0 L 2688663.0,1252437.0 L 2688663.0,1252412.0 L 2688638.0,1252412.0 L 2688638.0,1252387.0 L 2688613.0,1252387.0 L 2688613.0,1252362.0 L 2688588.0,1252362.0 L 2688588.0,1252337.0 L 2688563.0,1252337.0 L 2688563.0,1252312.0 L 2688538.0,1252312.0 L 2688538.0,1252287.0 L 2688513.0,1252287.0 L 2688513.0,1252262.0 L 2688488.0,1252262.0 L 2688488.0,1252237.0 L 2688463.0,1252237.0 L 2688463.0,1252212.0 L 2688438.0,1252212.0 L 2688438.0,1252162.0 L 2688413.0,1252162.0 L 2688413.0,1252137.0 L 2688388.0,1252137.0 L 2688388.0,1252112.0 L 2688363.0,1252112.0 L 2688363.0,1252087.0 L 2688338.0,1252087.0 L 2688338.0,1252062.0 L 2688313.0,1252062.0 L 2688313.0,1252037.0 L 2688288.0,1252037.0 L 2688263.0,1252037.0 L 2688263.0,1252012.0 L 2688238.0,1252012.0 L 2688238.0,1251987.0 L 2688188.0,1251987.0 L 2688188.0,1252012.0 L 2688138.0,1252012.0 L 2688138.0,1252037.0 L 2688113.0,1252037.0 L 2688113.0,1252062.0 L 2688088.0,1252062.0 L 2688088.0,1252112.0 L 2688063.0,1252112.0 L 2688063.0,1252137.0 L 2688038.0,1252137.0 L 2688038.0,1252162.0 L 2688013.0,1252162.0 L 2688013.0,1252187.0 L 2687963.0,1252187.0 L 2687963.0,1252212.0 L 2687913.0,1252212.0 L 2687913.0,1252237.0 L 2687888.0,1252237.0 L 2687888.0,1252262.0 L 2687838.0,1252262.0 L 2687838.0,1252337.0 L 2687813.0,1252337.0 L 2687813.0,1252412.0 L 2687788.0,1252412.0 L 2687788.0,1252437.0 L 2687763.0,1252437.0 L 2687763.0,1252512.0 L 2687738.0,1252512.0 L 2687738.0,1252537.0 L 2687713.0,1252537.0 L 2687713.0,1252587.0 L 2687688.0,1252587.0 L 2687688.0,1252637.0 L 2687663.0,1252637.0 L 2687663.0,1252662.0 L 2687638.0,1252662.0 L 2687638.0,1252712.0 L 2687613.0,1252712.0 L 2687613.0,1252737.0 L 2687588.0,1252737.0 L 2687588.0,1252762.0 L 2687538.0,1252762.0 L 2687538.0,1252787.0 L 2687513.0,1252787.0 L 2687513.0,1252837.0 L 2687488.0,1252837.0 L 2687488.0,1252887.0 L 2687363.0,1252887.0 L 2687363.0,1252912.0 L 2687213.0,1252912.0 L 2687213.0,1252887.0 L 2687188.0,1252887.0 L 2687163.0,1252887.0 L 2687163.0,1252862.0 L 2687138.0,1252862.0 L 2687113.0,1252862.0 L 2687113.0,1252837.0 L 2687088.0,1252837.0 L 2687088.0,1252812.0 L 2687063.0,1252812.0 L 2687038.0,1252812.0 L 2687038.0,1252787.0 L 2687013.0,1252787.0 L 2686988.0,1252787.0 L 2686988.0,1252762.0 L 2686963.0,1252762.0 L 2686913.0,1252762.0 L 2686913.0,1252737.0 L 2686888.0,1252737.0 L 2686888.0,1252762.0 L 2686863.0,1252762.0 L 2686863.0,1252737.0 L 2686838.0,1252737.0 L 2686838.0,1252762.0 L 2686788.0,1252762.0 L 2686788.0,1252737.0 L 2686763.0,1252737.0 L 2686638.0,1252737.0 L 2686638.0,1252712.0 L 2686613.0,1252712.0 L 2686488.0,1252712.0 L 2686488.0,1252687.0 L 2686463.0,1252687.0 L 2686363.0,1252687.0 L 2686363.0,1252662.0 L 2686338.0,1252662.0 L 2686288.0,1252662.0 L 2686288.0,1252637.0 L 2686163.0,1252637.0 L 2686163.0,1252662.0 L 2686063.0,1252662.0 L 2686063.0,1252637.0 L 2686038.0,1252637.0 L 2685963.0,1252637.0 L 2685963.0,1252612.0 L 2685938.0,1252612.0 L 2685913.0,1252612.0 L 2685913.0,1252587.0 L 2685888.0,1252587.0 L 2685863.0,1252587.0 L 2685863.0,1252562.0 L 2685838.0,1252562.0 L 2685788.0,1252562.0 L 2685788.0,1252537.0 L 2685763.0,1252537.0 L 2685738.0,1252537.0 L 2685738.0,1252512.0 L 2685713.0,1252512.0 L 2685688.0,1252512.0 L 2685688.0,1252487.0 L 2685663.0,1252487.0 L 2685663.0,1252462.0 L 2685638.0,1252462.0 L 2685638.0,1252437.0 L 2685613.0,1252437.0 L 2685613.0,1252412.0 L 2685588.0,1252412.0 L 2685538.0,1252412.0 L 2685538.0,1252387.0 L 2685513.0,1252387.0 L 2685513.0,1252412.0 L 2685463.0,1252412.0 L 2685463.0,1252437.0 L 2685438.0,1252437.0 L 2685438.0,1252512.0 L 2685388.0,1252512.0 L 2685388.0,1252537.0 L 2685313.0,1252537.0 L 2685313.0,1252562.0 L 2685288.0,1252562.0 L 2685288.0,1252587.0 L 2685263.0,1252587.0 L 2685263.0,1252612.0 L 2685238.0,1252612.0 L 2685238.0,1252662.0 L 2685213.0,1252662.0 L 2685213.0,1252712.0 L 2685188.0,1252712.0 L 2685188.0,1252737.0 L 2685213.0,1252737.0 L 2685213.0,1252862.0 L 2685238.0,1252862.0 L 2685238.0,1252837.0 L 2685263.0,1252837.0 L 2685288.0,1252837.0 L 2685288.0,1252862.0 L 2685263.0,1252862.0 L 2685263.0,1252887.0 L 2685288.0,1252887.0 L 2685288.0,1252912.0 L 2685263.0,1252912.0 L 2685263.0,1252987.0 L 2685288.0,1252987.0 L 2685288.0,1253012.0 L 2685313.0,1253012.0 L 2685338.0,1253012.0 L 2685338.0,1253037.0 L 2685388.0,1253037.0 L 2685413.0,1253037.0 L 2685413.0,1253062.0 L 2685463.0,1253062.0 L 2685488.0,1253062.0 L 2685488.0,1253087.0 L 2685513.0,1253087.0 L 2685513.0,1253112.0 L 2685538.0,1253112.0 L 2685538.0,1253087.0 L 2685563.0,1253087.0 L 2685563.0,1253137.0 L 2685588.0,1253137.0 L 2685613.0,1253137.0 L 2685613.0,1253162.0 L 2685638.0,1253162.0 L 2685663.0,1253162.0 L 2685663.0,1253187.0 L 2685688.0,1253187.0 L 2685713.0,1253187.0 L 2685713.0,1253212.0 L 2685763.0,1253212.0 L 2685788.0,1253212.0 L 2685788.0,1253237.0 L 2685813.0,1253237.0 L 2685813.0,1253262.0 L 2685838.0,1253262.0 L 2685838.0,1253362.0 L 2685863.0,1253362.0 L 2685863.0,1253437.0 L 2685888.0,1253437.0 L 2685888.0,1253587.0 L 2685913.0,1253587.0 L 2685913.0,1253612.0 L 2685938.0,1253612.0 L 2685938.0,1253662.0 L 2685913.0,1253662.0 L 2685913.0,1253787.0 L 2685888.0,1253787.0 L 2685888.0,1253837.0 L 2685863.0,1253837.0 L 2685863.0,1253887.0 L 2685838.0,1253887.0 L 2685838.0,1253962.0 L 2685813.0,1253962.0 L 2685813.0,1253987.0 L 2685788.0,1253987.0 L 2685788.0,1254037.0 L 2685763.0,1254037.0 L 2685763.0,1254087.0 L 2685738.0,1254087.0 L 2685738.0,1254112.0 L 2685713.0,1254112.0 L 2685713.0,1254187.0 L 2685688.0,1254187.0 L 2685688.0,1254512.0 L 2685663.0,1254512.0 L 2685663.0,1254637.0 L 2685638.0,1254637.0 L 2685638.0,1254712.0 L 2685613.0,1254712.0 L 2685613.0,1254762.0 L 2685588.0,1254762.0 L 2685588.0,1254862.0 L 2685613.0,1254862.0 L 2685613.0,1254887.0 L 2685638.0,1254887.0 L 2685638.0,1254937.0 L 2685663.0,1254937.0 L 2685663.0,1254962.0 L 2685688.0,1254962.0 L 2685688.0,1255012.0 L 2685713.0,1255012.0 L 2685713.0,1255037.0 L 2685738.0,1255037.0 L 2685738.0,1255087.0 L 2685763.0,1255087.0 L 2685763.0,1255112.0 L 2685788.0,1255112.0 L 2685788.0,1255162.0 L 2685813.0,1255162.0 L 2685813.0,1255187.0 L 2685838.0,1255187.0 L 2685838.0,1255212.0 L 2685863.0,1255212.0 L 2685888.0,1255212.0 L 2685888.0,1255237.0 L 2685913.0,1255237.0 L 2685913.0,1255287.0 L 2685938.0,1255287.0 L 2685938.0,1255312.0 L 2685988.0,1255312.0 L 2686013.0,1255312.0 L 2686013.0,1255337.0 L 2686038.0,1255337.0 L 2686063.0,1255337.0 L 2686063.0,1255362.0 L 2686363.0,1255362.0 L 2686388.0,1255362.0 L 2686388.0,1255387.0 L 2686438.0,1255387.0 L 2686463.0,1255387.0 L 2686463.0,1255412.0 L 2686488.0,1255412.0 L 2686513.0,1255412.0 L 2686513.0,1255437.0 L 2686538.0,1255437.0 L 2686563.0,1255437.0 L 2686563.0,1255462.0 L 2686588.0,1255462.0 L 2686613.0,1255462.0 L 2686613.0,1255487.0 L 2686638.0,1255487.0 L 2686663.0,1255487.0 L 2686663.0,1255512.0 L 2686688.0,1255512.0 L 2686713.0,1255512.0 L 2686713.0,1255537.0 L 2686763.0,1255537.0 L 2686788.0,1255537.0 L 2686788.0,1255562.0 L 2686838.0,1255562.0 L 2686863.0,1255562.0 L 2686863.0,1255587.0 L 2687013.0,1255587.0 L 2687038.0,1255587.0 L 2687038.0,1255612.0 L 2687188.0,1255612.0 L 2687213.0,1255612.0 L 2687213.0,1255637.0 L 2687463.0,1255637.0 L 2687463.0,1255612.0 L 2687713.0,1255612.0 L 2687713.0,1255637.0 L 2687738.0,1255637.0 L 2687738.0,1255612.0 L 2687888.0,1255612.0 L 2687888.0,1255637.0 L 2687913.0,1255637.0 L 2687913.0,1255612.0 L 2687938.0,1255612.0 L 2687938.0,1255637.0 L 2687988.0,1255637.0 L 2687988.0,1255612.0 L 2688063.0,1255612.0 L 2688063.0,1255637.0 L 2688088.0,1255637.0 L 2688088.0,1255662.0 L 2688113.0,1255662.0 L 2688113.0,1255687.0 L 2688138.0,1255687.0 L 2688138.0,1255737.0 L 2688163.0,1255737.0 L 2688163.0,1255787.0 L 2688138.0,1255787.0 L 2688138.0,1255812.0 L 2688113.0,1255812.0 L 2688113.0,1255787.0 L 2687988.0,1255787.0 L 2687988.0,1255862.0 L 2687963.0,1255862.0 L 2687963.0,1255887.0 L 2687938.0,1255887.0 L 2687938.0,1255937.0 L 2687913.0,1255937.0 L 2687913.0,1255962.0 L 2687888.0,1255962.0 L 2687888.0,1255987.0 L 2687863.0,1255987.0 L 2687863.0,1256012.0 L 2687813.0,1256012.0 L 2687813.0,1256037.0 L 2687788.0,1256037.0 L 2687788.0,1256062.0 L 2687763.0,1256062.0 L 2687763.0,1256087.0 L 2687738.0,1256087.0 L 2687738.0,1256112.0 L 2687713.0,1256112.0 L 2687713.0,1256137.0 L 2687663.0,1256137.0 L 2687663.0,1256162.0 L 2687588.0,1256162.0 L 2687588.0,1256187.0 L 2687563.0,1256187.0 L 2687563.0,1256212.0 L 2687538.0,1256212.0 L 2687538.0,1256237.0 L 2687513.0,1256237.0 L 2687513.0,1256262.0 L 2687488.0,1256262.0 L 2687488.0,1256287.0 L 2687463.0,1256287.0 L 2687463.0,1256312.0 L 2687438.0,1256312.0 L 2687438.0,1256337.0 L 2687413.0,1256337.0 L 2687413.0,1256362.0 L 2687363.0,1256362.0 L 2687363.0,1256387.0 L 2687338.0,1256387.0 L 2687338.0,1256412.0 L 2687313.0,1256412.0 L 2687313.0,1256437.0 L 2687263.0,1256437.0 L 2687263.0,1256462.0 L 2687238.0,1256462.0 L 2687238.0,1256487.0 L 2687213.0,1256487.0 L 2687213.0,1256512.0 L 2687138.0,1256512.0 L 2687138.0,1256537.0 L 2687113.0,1256537.0 L 2687113.0,1256562.0 L 2687063.0,1256562.0 L 2687063.0,1256587.0 L 2687038.0,1256587.0 L 2687038.0,1256612.0 L 2686938.0,1256612.0 L 2686938.0,1256637.0 L 2686913.0,1256637.0 L 2686913.0,1256662.0 L 2686863.0,1256662.0 L 2686863.0,1256687.0 L 2686813.0,1256687.0 L 2686813.0,1256712.0 L 2686763.0,1256712.0 L 2686763.0,1256737.0 L 2686688.0,1256737.0 L 2686688.0,1256762.0 L 2686613.0,1256762.0 L 2686613.0,1256787.0 L 2686588.0,1256787.0 L 2686588.0,1256812.0 L 2686538.0,1256812.0 L 2686538.0,1256837.0 L 2686513.0,1256837.0 L 2686513.0,1256862.0 L 2686488.0,1256862.0 L 2686488.0,1256887.0 L 2686463.0,1256887.0 L 2686463.0,1256912.0 L 2686438.0,1256912.0 L 2686438.0,1256962.0 L 2686413.0,1256962.0 L 2686413.0,1257012.0 L 2686388.0,1257012.0 L 2686388.0,1257062.0 L 2686363.0,1257062.0 L 2686363.0,1257237.0 L 2686388.0,1257237.0 L 2686388.0,1257362.0 L 2686363.0,1257362.0 L 2686363.0,1257437.0 L 2686338.0,1257437.0 L 2686338.0,1257462.0 L 2686313.0,1257462.0 L 2686313.0,1257537.0 L 2686288.0,1257537.0 L 2686288.0,1257587.0 L 2686263.0,1257587.0 L 2686263.0,1257612.0 L 2686163.0,1257612.0 L 2686163.0,1257637.0 L 2686138.0,1257637.0 L 2686138.0,1257662.0 L 2686063.0,1257662.0 L 2686063.0,1257637.0 L 2686038.0,1257637.0 L 2686038.0,1257662.0 L 2685988.0,1257662.0 L 2685988.0,1257587.0 L 2685963.0,1257587.0 L 2685963.0,1257562.0 L 2685938.0,1257562.0 L 2685938.0,1257512.0 L 2685913.0,1257512.0 L 2685913.0,1257487.0 L 2685888.0,1257487.0 L 2685888.0,1257462.0 L 2685863.0,1257462.0 L 2685863.0,1257437.0 L 2685838.0,1257437.0 L 2685838.0,1257412.0 L 2685813.0,1257412.0 L 2685763.0,1257412.0 L 2685763.0,1257387.0 L 2685738.0,1257387.0 L 2685713.0,1257387.0 L 2685713.0,1257362.0 L 2685688.0,1257362.0 L 2685688.0,1257337.0 L 2685663.0,1257337.0 L 2685663.0,1257287.0 L 2685638.0,1257287.0 L 2685638.0,1257262.0 L 2685613.0,1257262.0 L 2685613.0,1257237.0 L 2685588.0,1257237.0 L 2685588.0,1257212.0 L 2685563.0,1257212.0 L 2685563.0,1257187.0 L 2685538.0,1257187.0 L 2685513.0,1257187.0 L 2685513.0,1257162.0 L 2685488.0,1257162.0 L 2685488.0,1257137.0 L 2685463.0,1257137.0 L 2685438.0,1257137.0 L 2685438.0,1257112.0 L 2685413.0,1257112.0 L 2685388.0,1257112.0 L 2685388.0,1257087.0 L 2685288.0,1257087.0 L 2685288.0,1257112.0 L 2685238.0,1257112.0 L 2685238.0,1257137.0 L 2685213.0,1257137.0 L 2685213.0,1257162.0 L 2685138.0,1257162.0 L 2685138.0,1257187.0 L 2685088.0,1257187.0 L 2685088.0,1257212.0 L 2685038.0,1257212.0 L 2685038.0,1257262.0 L 2685013.0,1257262.0 L 2685013.0,1257287.0 L 2684988.0,1257287.0 L 2684988.0,1257312.0 L 2684963.0,1257312.0 L 2684963.0,1257337.0 L 2684938.0,1257337.0 L 2684938.0,1257362.0 L 2684888.0,1257362.0 L 2684888.0,1257412.0 L 2684863.0,1257412.0 L 2684863.0,1257437.0 L 2684838.0,1257437.0 L 2684838.0,1257462.0 L 2684813.0,1257462.0 L 2684813.0,1257487.0 L 2684788.0,1257487.0 L 2684788.0,1257537.0 L 2684763.0,1257537.0 L 2684763.0,1257562.0 L 2684738.0,1257562.0 L 2684738.0,1257587.0 L 2684688.0,1257587.0 L 2684688.0,1257612.0 L 2684663.0,1257612.0 L 2684663.0,1257637.0 L 2684613.0,1257637.0 L 2684613.0,1257662.0 L 2684588.0,1257662.0 L 2684588.0,1257687.0 L 2684513.0,1257687.0 L 2684513.0,1257712.0 L 2684463.0,1257712.0 L 2684463.0,1257737.0 L 2684413.0,1257737.0 L 2684413.0,1257762.0 L 2684363.0,1257762.0 L 2684363.0,1257787.0 L 2684288.0,1257787.0 L 2684288.0,1257812.0 L 2684188.0,1257812.0 L 2684188.0,1257837.0 L 2684138.0,1257837.0 L 2684138.0,1257862.0 L 2684063.0,1257862.0 L 2684063.0,1257887.0 L 2683838.0,1257887.0 z M 2685988.0,1245462.0 L 2685988.0,1245437.0 L 2686013.0,1245437.0 L 2686013.0,1245462.0 L 2686038.0,1245462.0 L 2686038.0,1245487.0 L 2686013.0,1245487.0 L 2686013.0,1245462.0 L 2685988.0,1245462.0 z M 2678213.0,1250712.0 L 2678213.0,1250687.0 L 2678263.0,1250687.0 L 2678263.0,1250712.0 L 2678213.0,1250712.0 z M 2678163.0,1250787.0 L 2678163.0,1250762.0 L 2678188.0,1250762.0 L 2678188.0,1250787.0 L 2678163.0,1250787.0 z" /></g></svg>